<svg version="1.1" viewBox="0.0 0.0 960.0 720.0" fill="none" stroke="none" stroke-linecap="square" stroke-miterlimit="10" xmlns:xlink="http://www.w3.org/1999/xlink" xmlns="http://www.w3.org/2000/svg"><clipPath id="p.0"><path d="m0 0l960.0 0l0 720.0l-960.0 0l0 -720.0z" clip-rule="nonzero"/></clipPath><g clip-path="url(#p.0)"><path fill="#000000" fill-opacity="0.0" d="m0 0l960.0 0l0 720.0l-960.0 0z" fill-rule="evenodd"/><path fill="#000000" fill-opacity="0.0" d="m628.2756 252.69029l0 -105.70079" fill-rule="evenodd"/><path stroke="#ffffff" stroke-width="1.0" stroke-linejoin="round" stroke-linecap="butt" d="m628.2756 252.69029l0 -105.70079" fill-rule="evenodd"/><path fill="#000000" fill-opacity="0.0" d="m736.559 282.0508l5.2283325 -100.47246" fill-rule="evenodd"/><path stroke="#ffffff" stroke-width="1.0" stroke-linejoin="round" stroke-linecap="butt" d="m736.559 282.0508l5.2283325 -100.47246" fill-rule="evenodd"/><path fill="#000000" fill-opacity="0.0" d="m483.24408 98.99475l147.33862 154.55118" fill-rule="evenodd"/><path stroke="#ffffff" stroke-width="1.0" stroke-linejoin="round" stroke-linecap="butt" d="m483.24408 98.99475l147.33862 154.55118" fill-rule="evenodd"/><path fill="#000000" fill-opacity="0.0" d="m483.24408 98.99475l6.4881897 59.716537" fill-rule="evenodd"/><path stroke="#ffffff" stroke-width="1.0" stroke-linejoin="round" stroke-linecap="butt" d="m483.24408 98.99475l6.4881897 59.716537" fill-rule="evenodd"/><path fill="#000000" fill-opacity="0.0" d="m689.7769 194.99475l-25.669312 165.88977" fill-rule="evenodd"/><path stroke="#ffffff" stroke-width="1.0" stroke-linejoin="round" stroke-linecap="butt" d="m689.7769 194.99475l-25.669312 165.88977" fill-rule="evenodd"/><path fill="#000000" fill-opacity="0.0" d="m555.0184 371.5328l54.236206 -45.039368" fill-rule="evenodd"/><path stroke="#ffffff" stroke-width="1.0" stroke-linejoin="round" stroke-linecap="butt" d="m555.0184 371.5328l54.236206 -45.039368" fill-rule="evenodd"/><path fill="#000000" fill-opacity="0.0" d="m625.9817 146.14606l-133.95279 17.51181" fill-rule="evenodd"/><path stroke="#ffffff" stroke-width="1.0" stroke-linejoin="round" stroke-linecap="butt" d="m625.9817 146.14606l-133.95279 17.51181" fill-rule="evenodd"/><path fill="#000000" fill-opacity="0.0" d="m405.06033 245.14868l39.8425 -17.196854" fill-rule="evenodd"/><path stroke="#ffffff" stroke-width="1.0" stroke-linejoin="round" stroke-linecap="butt" d="m405.06033 245.14868l39.8425 -17.196854" fill-rule="evenodd"/><path fill="#000000" fill-opacity="0.0" d="m776.7638 209.53543l-22.204712 50.64566" fill-rule="evenodd"/><path stroke="#ffffff" stroke-width="1.0" stroke-linejoin="round" stroke-linecap="butt" d="m776.7638 209.53543l-22.204712 50.64566" fill-rule="evenodd"/><path fill="#000000" fill-opacity="0.0" d="m776.7638 217.72047l0 -8.18898" fill-rule="evenodd"/><path stroke="#ffffff" stroke-width="1.0" stroke-linejoin="round" stroke-linecap="butt" d="m776.7638 217.72047l0 -8.18898" fill-rule="evenodd"/><path fill="#000000" fill-opacity="0.0" d="m741.79785 181.566l32.661438 23.02362" fill-rule="evenodd"/><path stroke="#ffffff" stroke-width="1.0" stroke-linejoin="round" stroke-linecap="butt" d="m741.79785 181.566l32.661438 23.02362" fill-rule="evenodd"/><path fill="#000000" fill-opacity="0.0" d="m674.76117 164.49606l61.51178 15.023621" fill-rule="evenodd"/><path stroke="#ffffff" stroke-width="1.0" stroke-linejoin="round" stroke-linecap="butt" d="m674.76117 164.49606l61.51178 15.023621" fill-rule="evenodd"/><path fill="#000000" fill-opacity="0.0" d="m624.26245 315.79266l-46.015747 157.92123" fill-rule="evenodd"/><path stroke="#ffffff" stroke-width="1.0" stroke-linejoin="round" stroke-linecap="butt" d="m624.26245 315.79266l-46.015747 157.92123" fill-rule="evenodd"/><path fill="#000000" fill-opacity="0.0" d="m531.76117 309.99738l94.236206 -52.346466" fill-rule="evenodd"/><path stroke="#ffffff" stroke-width="1.0" stroke-linejoin="round" stroke-linecap="butt" d="m531.76117 309.99738l94.236206 -52.346466" fill-rule="evenodd"/><path fill="#000000" fill-opacity="0.0" d="m625.9817 257.63687l124.0 6.6456604" fill-rule="evenodd"/><path stroke="#ffffff" stroke-width="1.0" stroke-linejoin="round" stroke-linecap="butt" d="m625.9817 257.63687l124.0 6.6456604" fill-rule="evenodd"/><path fill="#000000" fill-opacity="0.0" d="m492.0262 163.64737l114.92911 157.88977" fill-rule="evenodd"/><path stroke="#ffffff" stroke-width="1.0" stroke-linejoin="round" stroke-linecap="butt" d="m492.0262 163.64737l114.92911 157.88977" fill-rule="evenodd"/><path fill="#000000" fill-opacity="0.0" d="m736.2809 283.96494l13.700806 -19.685028" fill-rule="evenodd"/><path stroke="#ffffff" stroke-width="1.0" stroke-linejoin="round" stroke-linecap="butt" d="m736.2809 283.96494l13.700806 -19.685028" fill-rule="evenodd"/><path fill="#000000" fill-opacity="0.0" d="m578.26245 473.70078l-26.48816 -99.27557" fill-rule="evenodd"/><path stroke="#ffffff" stroke-width="1.0" stroke-linejoin="round" stroke-linecap="butt" d="m578.26245 473.70078l-26.48816 -99.27557" fill-rule="evenodd"/><path fill="#000000" fill-opacity="0.0" d="m734.2651 286.99738l-70.14172 73.88977" fill-rule="evenodd"/><path stroke="#ffffff" stroke-width="1.0" stroke-linejoin="round" stroke-linecap="butt" d="m734.2651 286.99738l-70.14172 73.88977" fill-rule="evenodd"/><path fill="#000000" fill-opacity="0.0" d="m741.79785 181.566l26.48822 66.17323" fill-rule="evenodd"/><path stroke="#ffffff" stroke-width="1.0" stroke-linejoin="round" stroke-linecap="butt" d="m741.79785 181.566l26.48822 66.17323" fill-rule="evenodd"/><path fill="#000000" fill-opacity="0.0" d="m689.7769 194.99475l-61.51184 57.70079" fill-rule="evenodd"/><path stroke="#ffffff" stroke-width="1.0" stroke-linejoin="round" stroke-linecap="butt" d="m689.7769 194.99475l-61.51184 57.70079" fill-rule="evenodd"/><path fill="#000000" fill-opacity="0.0" d="m444.91342 227.95183l47.118103 -64.31496" fill-rule="evenodd"/><path stroke="#ffffff" stroke-width="1.0" stroke-linejoin="round" stroke-linecap="butt" d="m444.91342 227.95183l47.118103 -64.31496" fill-rule="evenodd"/><path fill="#000000" fill-opacity="0.0" d="m625.9817 257.63687l1.5117798 55.24408" fill-rule="evenodd"/><path stroke="#ffffff" stroke-width="1.0" stroke-linejoin="round" stroke-linecap="butt" d="m625.9817 257.63687l1.5117798 55.24408" fill-rule="evenodd"/><path fill="#000000" fill-opacity="0.0" d="m674.76117 164.49606l15.023621 30.48819" fill-rule="evenodd"/><path stroke="#ffffff" stroke-width="1.0" stroke-linejoin="round" stroke-linecap="butt" d="m674.76117 164.49606l15.023621 30.48819" fill-rule="evenodd"/><path fill="#000000" fill-opacity="0.0" d="m776.7638 223.51575l0 13.984253" fill-rule="evenodd"/><path stroke="#ffffff" stroke-width="1.0" stroke-linejoin="round" stroke-linecap="butt" d="m776.7638 223.51575l0 13.984253" fill-rule="evenodd"/><path fill="#000000" fill-opacity="0.0" d="m664.12335 366.68503l6.48822 27.653564" fill-rule="evenodd"/><path stroke="#ffffff" stroke-width="1.0" stroke-linejoin="round" stroke-linecap="butt" d="m664.12335 366.68503l6.48822 27.653564" fill-rule="evenodd"/><path fill="#000000" fill-opacity="0.0" d="m749.9817 264.2799l-123.433105 46.551178" fill-rule="evenodd"/><path stroke="#ffffff" stroke-width="1.0" stroke-linejoin="round" stroke-linecap="butt" d="m749.9817 264.2799l-123.433105 46.551178" fill-rule="evenodd"/><path fill="#000000" fill-opacity="0.0" d="m689.7769 194.99475l64.787415 69.29135" fill-rule="evenodd"/><path stroke="#ffffff" stroke-width="1.0" stroke-linejoin="round" stroke-linecap="butt" d="m689.7769 194.99475l64.787415 69.29135" fill-rule="evenodd"/><path fill="#000000" fill-opacity="0.0" d="m609.26245 326.49606l23.496094 74.58267" fill-rule="evenodd"/><path stroke="#ffffff" stroke-width="1.0" stroke-linejoin="round" stroke-linecap="butt" d="m609.26245 326.49606l23.496094 74.58267" fill-rule="evenodd"/><path fill="#000000" fill-opacity="0.0" d="m630.5695 146.14606l40.944885 15.464569" fill-rule="evenodd"/><path stroke="#ffffff" stroke-width="1.0" stroke-linejoin="round" stroke-linecap="butt" d="m630.5695 146.14606l40.944885 15.464569" fill-rule="evenodd"/><path fill="#000000" fill-opacity="0.0" d="m664.12335 360.88977l-54.86615 -34.393707" fill-rule="evenodd"/><path stroke="#ffffff" stroke-width="1.0" stroke-linejoin="round" stroke-linecap="butt" d="m664.12335 360.88977l-54.86615 -34.393707" fill-rule="evenodd"/><path fill="#000000" fill-opacity="0.0" d="m483.24408 98.99475l-78.17322 146.14174" fill-rule="evenodd"/><path stroke="#ffffff" stroke-width="1.0" stroke-linejoin="round" stroke-linecap="butt" d="m483.24408 98.99475l-78.17322 146.14174" fill-rule="evenodd"/><path fill="#000000" fill-opacity="0.0" d="m528.5171 307.09973l-123.4646 -61.952744" fill-rule="evenodd"/><path stroke="#ffffff" stroke-width="1.0" stroke-linejoin="round" stroke-linecap="butt" d="m528.5171 307.09973l-123.4646 -61.952744" fill-rule="evenodd"/><path fill="#000000" fill-opacity="0.0" d="m604.4725 453.3534l-23.905518 21.196869" fill-rule="evenodd"/><path stroke="#ffffff" stroke-width="1.0" stroke-linejoin="round" stroke-linecap="butt" d="m604.4725 453.3534l-23.905518 21.196869" fill-rule="evenodd"/><path fill="#000000" fill-opacity="0.0" d="m626.5564 310.84607l80.25195 57.795288" fill-rule="evenodd"/><path stroke="#ffffff" stroke-width="1.0" stroke-linejoin="round" stroke-linecap="butt" d="m626.5564 310.84607l80.25195 57.795288" fill-rule="evenodd"/><path fill="#302681" d="m660.8793 363.7874l0 0c0 -1.6003418 1.4524536 -2.897644 3.2440796 -2.897644l0 0c1.791687 0 3.2440796 1.2973022 3.2440796 2.897644l0 0c0 1.6003113 -1.4523926 2.8976135 -3.2440796 2.8976135l0 0c-1.791626 0 -3.2440796 -1.2973022 -3.2440796 -2.8976135z" fill-rule="evenodd"/><path stroke="#302681" stroke-width="2.0" stroke-linejoin="round" stroke-linecap="butt" d="m660.8793 363.7874l0 0c0 -1.6003418 1.4524536 -2.897644 3.2440796 -2.897644l0 0c1.791687 0 3.2440796 1.2973022 3.2440796 2.897644l0 0c0 1.6003113 -1.4523926 2.8976135 -3.2440796 2.8976135l0 0c-1.791626 0 -3.2440796 -1.2973022 -3.2440796 -2.8976135z" fill-rule="evenodd"/><path fill="#000000" fill-opacity="0.0" d="m734.2651 286.99738l-29.763733 80.787415" fill-rule="evenodd"/><path stroke="#ffffff" stroke-width="1.0" stroke-linejoin="round" stroke-linecap="butt" d="m734.2651 286.99738l-29.763733 80.787415" fill-rule="evenodd"/><path fill="#ffcb00" d="m399.5223 243.09973l0 0c0 -1.6003113 1.4524231 -2.8976288 3.24411 -2.8976288l0 0c1.7916565 0 3.2440796 1.2973175 3.2440796 2.8976288l0 0c0 1.6003265 -1.4524231 2.897644 -3.2440796 2.897644l0 0c-1.791687 0 -3.24411 -1.2973175 -3.24411 -2.897644z" fill-rule="evenodd"/><path stroke="#ffcb00" stroke-width="2.0" stroke-linejoin="round" stroke-linecap="butt" d="m399.5223 243.09973l0 0c0 -1.6003113 1.4524231 -2.8976288 3.24411 -2.8976288l0 0c1.7916565 0 3.2440796 1.2973175 3.2440796 2.8976288l0 0c0 1.6003265 -1.4524231 2.897644 -3.2440796 2.897644l0 0c-1.791687 0 -3.24411 -1.2973175 -3.24411 -2.897644z" fill-rule="evenodd"/><path fill="#ffcb00" d="m671.5171 161.59842l0 0c0 -1.6003113 1.4523926 -2.8976288 3.2440796 -2.8976288l0 0c1.791626 0 3.2440796 1.2973175 3.2440796 2.8976288l0 0c0 1.6003265 -1.4524536 2.897644 -3.2440796 2.897644l0 0c-1.791687 0 -3.2440796 -1.2973175 -3.2440796 -2.897644z" fill-rule="evenodd"/><path stroke="#ffcb00" stroke-width="2.0" stroke-linejoin="round" stroke-linecap="butt" d="m671.5171 161.59842l0 0c0 -1.6003113 1.4523926 -2.8976288 3.2440796 -2.8976288l0 0c1.791626 0 3.2440796 1.2973175 3.2440796 2.8976288l0 0c0 1.6003265 -1.4524536 2.897644 -3.2440796 2.897644l0 0c-1.791687 0 -3.2440796 -1.2973175 -3.2440796 -2.897644z" fill-rule="evenodd"/><path fill="#000000" fill-opacity="0.0" d="m768.2782 247.74803l8.472473 -10.236221" fill-rule="evenodd"/><path stroke="#ffffff" stroke-width="1.0" stroke-linejoin="round" stroke-linecap="butt" d="m768.2782 247.74803l8.472473 -10.236221" fill-rule="evenodd"/><path fill="#000000" fill-opacity="0.0" d="m531.76117 309.99738l20.0 64.44095" fill-rule="evenodd"/><path stroke="#ffffff" stroke-width="1.0" stroke-linejoin="round" stroke-linecap="butt" d="m531.76117 309.99738l20.0 64.44095" fill-rule="evenodd"/><path fill="#302681" d="m686.53284 192.0971l0 0c0 -1.6003113 1.4523926 -2.8976288 3.2440796 -2.8976288l0 0c1.791626 0 3.2440796 1.2973175 3.2440796 2.8976288l0 0c0 1.6003265 -1.4524536 2.897644 -3.2440796 2.897644l0 0c-1.791687 0 -3.2440796 -1.2973175 -3.2440796 -2.897644z" fill-rule="evenodd"/><path stroke="#302681" stroke-width="2.0" stroke-linejoin="round" stroke-linecap="butt" d="m686.53284 192.0971l0 0c0 -1.6003113 1.4523926 -2.8976288 3.2440796 -2.8976288l0 0c1.791626 0 3.2440796 1.2973175 3.2440796 2.8976288l0 0c0 1.6003265 -1.4524536 2.897644 -3.2440796 2.897644l0 0c-1.791687 0 -3.2440796 -1.2973175 -3.2440796 -2.897644z" fill-rule="evenodd"/><path fill="#ffcb00" d="m736.2598 179.51706l0 0c0 -1.6003265 1.4524536 -2.897644 3.2441406 -2.897644l0 0c1.791626 0 3.2440796 1.2973175 3.2440796 2.897644l0 0c0 1.6003265 -1.4524536 2.897644 -3.2440796 2.897644l0 0c-1.791687 0 -3.2441406 -1.2973175 -3.2441406 -2.897644z" fill-rule="evenodd"/><path stroke="#ffcb00" stroke-width="2.0" stroke-linejoin="round" stroke-linecap="butt" d="m736.2598 179.51706l0 0c0 -1.6003265 1.4524536 -2.897644 3.2441406 -2.897644l0 0c1.791626 0 3.2440796 1.2973175 3.2440796 2.897644l0 0c0 1.6003265 -1.4524536 2.897644 -3.2440796 2.897644l0 0c-1.791687 0 -3.2441406 -1.2973175 -3.2441406 -2.897644z" fill-rule="evenodd"/><path fill="#000000" fill-opacity="0.0" d="m754.5695 260.18204l11.40155 -7.496063" fill-rule="evenodd"/><path stroke="#ffffff" stroke-width="1.0" stroke-linejoin="round" stroke-linecap="butt" d="m754.5695 260.18204l11.40155 -7.496063" fill-rule="evenodd"/><path fill="#000000" fill-opacity="0.0" d="m702.2179 372.73923l-28.37793 24.503937" fill-rule="evenodd"/><path stroke="#ffffff" stroke-width="1.0" stroke-linejoin="round" stroke-linecap="butt" d="m702.2179 372.73923l-28.37793 24.503937" fill-rule="evenodd"/><path fill="#000000" fill-opacity="0.0" d="m483.24408 98.99475l107.93701 28.661415" fill-rule="evenodd"/><path stroke="#ffffff" stroke-width="1.0" stroke-linejoin="round" stroke-linecap="butt" d="m483.24408 98.99475l107.93701 28.661415" fill-rule="evenodd"/><path fill="#ffcb00" d="m701.2677 370.69028l0 0c0 -1.6003113 1.4524536 -2.8976135 3.2441406 -2.8976135l0 0c1.791626 0 3.2440796 1.2973022 3.2440796 2.8976135l0 0c0 1.6003418 -1.4524536 2.897644 -3.2440796 2.897644l0 0c-1.791687 0 -3.2441406 -1.2973022 -3.2441406 -2.897644z" fill-rule="evenodd"/><path stroke="#ffcb00" stroke-width="2.0" stroke-linejoin="round" stroke-linecap="butt" d="m701.2677 370.69028l0 0c0 -1.6003113 1.4524536 -2.8976135 3.2441406 -2.8976135l0 0c1.791626 0 3.2440796 1.2973022 3.2440796 2.8976135l0 0c0 1.6003418 -1.4524536 2.897644 -3.2440796 2.897644l0 0c-1.791687 0 -3.2441406 -1.2973022 -3.2441406 -2.897644z" fill-rule="evenodd"/><path fill="#302681" d="m765.0341 250.64568l0 0c0 -1.6003265 1.4524536 -2.897644 3.2440796 -2.897644l0 0c1.791687 0 3.2441406 1.2973175 3.2441406 2.897644l0 0c0 1.6003113 -1.4524536 2.8976288 -3.2441406 2.8976288l0 0c-1.791626 0 -3.2440796 -1.2973175 -3.2440796 -2.8976288z" fill-rule="evenodd"/><path stroke="#302681" stroke-width="2.0" stroke-linejoin="round" stroke-linecap="butt" d="m765.0341 250.64568l0 0c0 -1.6003265 1.4524536 -2.897644 3.2440796 -2.897644l0 0c1.791687 0 3.2441406 1.2973175 3.2441406 2.897644l0 0c0 1.6003113 -1.4524536 2.8976288 -3.2441406 2.8976288l0 0c-1.791626 0 -3.2440796 -1.2973175 -3.2440796 -2.8976288z" fill-rule="evenodd"/><path fill="#009440" d="m575.0184 476.59842l0 0c0 -1.6003113 1.4524536 -2.897644 3.2440796 -2.897644l0 0c1.791687 0 3.2441406 1.2973328 3.2441406 2.897644l0 0c0 1.6003418 -1.4524536 2.897644 -3.2441406 2.897644l0 0c-1.791626 0 -3.2440796 -1.2973022 -3.2440796 -2.897644z" fill-rule="evenodd"/><path stroke="#009440" stroke-width="2.0" stroke-linejoin="round" stroke-linecap="butt" d="m575.0184 476.59842l0 0c0 -1.6003113 1.4524536 -2.897644 3.2440796 -2.897644l0 0c1.791687 0 3.2441406 1.2973328 3.2441406 2.897644l0 0c0 1.6003418 -1.4524536 2.897644 -3.2441406 2.897644l0 0c-1.791626 0 -3.2440796 -1.2973022 -3.2440796 -2.897644z" fill-rule="evenodd"/><path fill="#009440" d="m480.0 96.097115l0 0c0 -1.6003265 1.4524231 -2.8976364 3.2440796 -2.8976364l0 0c1.791687 0 3.24411 1.2973099 3.24411 2.8976364l0 0c0 1.6003189 -1.4524231 2.8976364 -3.24411 2.8976364l0 0c-1.7916565 0 -3.2440796 -1.2973175 -3.2440796 -2.8976364z" fill-rule="evenodd"/><path stroke="#009440" stroke-width="2.0" stroke-linejoin="round" stroke-linecap="butt" d="m480.0 96.097115l0 0c0 -1.6003265 1.4524231 -2.8976364 3.2440796 -2.8976364l0 0c1.791687 0 3.24411 1.2973099 3.24411 2.8976364l0 0c0 1.6003189 -1.4524231 2.8976364 -3.24411 2.8976364l0 0c-1.7916565 0 -3.2440796 -1.2973175 -3.2440796 -2.8976364z" fill-rule="evenodd"/><path fill="#000000" fill-opacity="0.0" d="m628.2756 252.69029l148.50397 -43.149612" fill-rule="evenodd"/><path stroke="#ffffff" stroke-width="1.0" stroke-linejoin="round" stroke-linecap="butt" d="m628.2756 252.69029l148.50397 -43.149612" fill-rule="evenodd"/><path fill="#009440" d="m528.5171 307.09973l0 0c0 -1.6003113 1.4523926 -2.897644 3.2440796 -2.897644l0 0c1.791626 0 3.2440796 1.2973328 3.2440796 2.897644l0 0c0 1.6003418 -1.4524536 2.897644 -3.2440796 2.897644l0 0c-1.791687 0 -3.2440796 -1.2973022 -3.2440796 -2.897644z" fill-rule="evenodd"/><path stroke="#009440" stroke-width="2.0" stroke-linejoin="round" stroke-linecap="butt" d="m528.5171 307.09973l0 0c0 -1.6003113 1.4523926 -2.897644 3.2440796 -2.897644l0 0c1.791626 0 3.2440796 1.2973328 3.2440796 2.897644l0 0c0 1.6003418 -1.4524536 2.897644 -3.2440796 2.897644l0 0c-1.791687 0 -3.2440796 -1.2973022 -3.2440796 -2.897644z" fill-rule="evenodd"/><path fill="#ffcb00" d="m606.0184 323.59842l0 0c0 -1.6003113 1.4524536 -2.897644 3.2440796 -2.897644l0 0c1.791687 0 3.2441406 1.2973328 3.2441406 2.897644l0 0c0 1.6003418 -1.4524536 2.897644 -3.2441406 2.897644l0 0c-1.791626 0 -3.2440796 -1.2973022 -3.2440796 -2.897644z" fill-rule="evenodd"/><path stroke="#ffcb00" stroke-width="2.0" stroke-linejoin="round" stroke-linecap="butt" d="m606.0184 323.59842l0 0c0 -1.6003113 1.4524536 -2.897644 3.2440796 -2.897644l0 0c1.791687 0 3.2441406 1.2973328 3.2441406 2.897644l0 0c0 1.6003418 -1.4524536 2.897644 -3.2441406 2.897644l0 0c-1.791626 0 -3.2440796 -1.2973022 -3.2440796 -2.897644z" fill-rule="evenodd"/><path fill="#302681" d="m443.96326 225.9029l0 0c0 -1.6003265 1.4524231 -2.897644 3.2440796 -2.897644l0 0c1.791687 0 3.24411 1.2973175 3.24411 2.897644l0 0c0 1.6003113 -1.4524231 2.8976288 -3.24411 2.8976288l0 0c-1.7916565 0 -3.2440796 -1.2973175 -3.2440796 -2.8976288z" fill-rule="evenodd"/><path stroke="#302681" stroke-width="2.0" stroke-linejoin="round" stroke-linecap="butt" d="m443.96326 225.9029l0 0c0 -1.6003265 1.4524231 -2.897644 3.2440796 -2.897644l0 0c1.791687 0 3.24411 1.2973175 3.24411 2.897644l0 0c0 1.6003113 -1.4524231 2.8976288 -3.24411 2.8976288l0 0c-1.7916565 0 -3.2440796 -1.2973175 -3.2440796 -2.8976288z" fill-rule="evenodd"/><path fill="#302681" d="m621.0184 312.89502l0 0c0 -1.6003418 1.4524536 -2.897644 3.2440796 -2.897644l0 0c1.791687 0 3.2441406 1.2973022 3.2441406 2.897644l0 0c0 1.6003113 -1.4524536 2.897644 -3.2441406 2.897644l0 0c-1.791626 0 -3.2440796 -1.2973328 -3.2440796 -2.897644z" fill-rule="evenodd"/><path stroke="#302681" stroke-width="2.0" stroke-linejoin="round" stroke-linecap="butt" d="m621.0184 312.89502l0 0c0 -1.6003418 1.4524536 -2.897644 3.2440796 -2.897644l0 0c1.791687 0 3.2441406 1.2973022 3.2441406 2.897644l0 0c0 1.6003113 -1.4524536 2.897644 -3.2441406 2.897644l0 0c-1.791626 0 -3.2440796 -1.2973328 -3.2440796 -2.897644z" fill-rule="evenodd"/><path fill="#ffcb00" d="m749.0315 262.23096l0 0c0 -1.6003113 1.4524536 -2.8976135 3.2440796 -2.8976135l0 0c1.791687 0 3.2441406 1.2973022 3.2441406 2.8976135l0 0c0 1.6003418 -1.4524536 2.897644 -3.2441406 2.897644l0 0c-1.791626 0 -3.2440796 -1.2973022 -3.2440796 -2.897644z" fill-rule="evenodd"/><path stroke="#ffcb00" stroke-width="2.0" stroke-linejoin="round" stroke-linecap="butt" d="m749.0315 262.23096l0 0c0 -1.6003113 1.4524536 -2.8976135 3.2440796 -2.8976135l0 0c1.791687 0 3.2441406 1.2973022 3.2441406 2.8976135l0 0c0 1.6003418 -1.4524536 2.897644 -3.2441406 2.897644l0 0c-1.791626 0 -3.2440796 -1.2973022 -3.2440796 -2.897644z" fill-rule="evenodd"/><path fill="#009440" d="m731.021 284.09973l0 0c0 -1.6003113 1.4524536 -2.897644 3.2440796 -2.897644l0 0c1.791687 0 3.2441406 1.2973328 3.2441406 2.897644l0 0c0 1.6003418 -1.4524536 2.897644 -3.2441406 2.897644l0 0c-1.791626 0 -3.2440796 -1.2973022 -3.2440796 -2.897644z" fill-rule="evenodd"/><path stroke="#009440" stroke-width="2.0" stroke-linejoin="round" stroke-linecap="butt" d="m731.021 284.09973l0 0c0 -1.6003113 1.4524536 -2.897644 3.2440796 -2.897644l0 0c1.791687 0 3.2441406 1.2973328 3.2441406 2.897644l0 0c0 1.6003418 -1.4524536 2.897644 -3.2441406 2.897644l0 0c-1.791626 0 -3.2440796 -1.2973022 -3.2440796 -2.897644z" fill-rule="evenodd"/><path fill="#000000" fill-opacity="0.0" d="m591.17065 127.64736l33.858276 16.44094" fill-rule="evenodd"/><path stroke="#ffffff" stroke-width="1.0" stroke-linejoin="round" stroke-linecap="butt" d="m591.17065 127.64736l33.858276 16.44094" fill-rule="evenodd"/><path fill="#302681" d="m625.0315 144.0971l0 0c0 -1.6003113 1.4524536 -2.8976288 3.2440796 -2.8976288l0 0c1.791687 0 3.2441406 1.2973175 3.2441406 2.8976288l0 0c0 1.6003265 -1.4524536 2.897644 -3.2441406 2.897644l0 0c-1.791626 0 -3.2440796 -1.2973175 -3.2440796 -2.897644z" fill-rule="evenodd"/><path stroke="#302681" stroke-width="2.0" stroke-linejoin="round" stroke-linecap="butt" d="m625.0315 144.0971l0 0c0 -1.6003113 1.4524536 -2.8976288 3.2440796 -2.8976288l0 0c1.791687 0 3.2441406 1.2973175 3.2441406 2.8976288l0 0c0 1.6003265 -1.4524536 2.897644 -3.2441406 2.897644l0 0c-1.791626 0 -3.2440796 -1.2973175 -3.2440796 -2.897644z" fill-rule="evenodd"/><path fill="#009440" d="m773.5197 234.59842l0 0c0 -1.6003113 1.4523926 -2.8976288 3.2440796 -2.8976288l0 0c1.791626 0 3.2440796 1.2973175 3.2440796 2.8976288l0 0c0 1.6003265 -1.4524536 2.897644 -3.2440796 2.897644l0 0c-1.791687 0 -3.2440796 -1.2973175 -3.2440796 -2.897644z" fill-rule="evenodd"/><path stroke="#009440" stroke-width="2.0" stroke-linejoin="round" stroke-linecap="butt" d="m773.5197 234.59842l0 0c0 -1.6003113 1.4523926 -2.8976288 3.2440796 -2.8976288l0 0c1.791626 0 3.2440796 1.2973175 3.2440796 2.8976288l0 0c0 1.6003265 -1.4524536 2.897644 -3.2440796 2.897644l0 0c-1.791687 0 -3.2440796 -1.2973175 -3.2440796 -2.897644z" fill-rule="evenodd"/><path fill="#000000" fill-opacity="0.0" d="m668.3071 399.28516l-32.31494 4.692932" fill-rule="evenodd"/><path stroke="#ffffff" stroke-width="1.0" stroke-linejoin="round" stroke-linecap="butt" d="m668.3071 399.28516l-32.31494 4.692932" fill-rule="evenodd"/><path fill="#ffcb00" d="m667.35693 397.2362l0 0c0 -1.6003113 1.4524536 -2.8976135 3.2441406 -2.8976135l0 0c1.791626 0 3.2440796 1.2973022 3.2440796 2.8976135l0 0c0 1.6003418 -1.4524536 2.897644 -3.2440796 2.897644l0 0c-1.791687 0 -3.2441406 -1.2973022 -3.2441406 -2.897644z" fill-rule="evenodd"/><path stroke="#ffcb00" stroke-width="2.0" stroke-linejoin="round" stroke-linecap="butt" d="m667.35693 397.2362l0 0c0 -1.6003113 1.4524536 -2.8976135 3.2441406 -2.8976135l0 0c1.791626 0 3.2440796 1.2973022 3.2440796 2.8976135l0 0c0 1.6003418 -1.4524536 2.897644 -3.2440796 2.897644l0 0c-1.791687 0 -3.2441406 -1.2973022 -3.2441406 -2.897644z" fill-rule="evenodd"/><path fill="#000000" fill-opacity="0.0" d="m630.46985 406.0227l-21.417297 43.24408" fill-rule="evenodd"/><path stroke="#ffffff" stroke-width="1.0" stroke-linejoin="round" stroke-linecap="butt" d="m630.46985 406.0227l-21.417297 43.24408" fill-rule="evenodd"/><path fill="#ffcb00" d="m603.52234 451.30447l0 0c0 -1.6003418 1.4523926 -2.897644 3.2440796 -2.897644l0 0c1.791626 0 3.2440796 1.2973022 3.2440796 2.897644l0 0c0 1.6003113 -1.4524536 2.8976135 -3.2440796 2.8976135l0 0c-1.791687 0 -3.2440796 -1.2973022 -3.2440796 -2.8976135z" fill-rule="evenodd"/><path stroke="#ffcb00" stroke-width="2.0" stroke-linejoin="round" stroke-linecap="butt" d="m603.52234 451.30447l0 0c0 -1.6003418 1.4523926 -2.897644 3.2440796 -2.897644l0 0c1.791626 0 3.2440796 1.2973022 3.2440796 2.897644l0 0c0 1.6003113 -1.4524536 2.8976135 -3.2440796 2.8976135l0 0c-1.791687 0 -3.2440796 -1.2973022 -3.2440796 -2.8976135z" fill-rule="evenodd"/><path fill="#009440" d="m629.5197 403.97375l0 0c0 -1.6003113 1.4523926 -2.897644 3.2440796 -2.897644l0 0c1.791626 0 3.2440796 1.2973328 3.2440796 2.897644l0 0c0 1.6003113 -1.4524536 2.897644 -3.2440796 2.897644l0 0c-1.791687 0 -3.2440796 -1.2973328 -3.2440796 -2.897644z" fill-rule="evenodd"/><path stroke="#009440" stroke-width="2.0" stroke-linejoin="round" stroke-linecap="butt" d="m629.5197 403.97375l0 0c0 -1.6003113 1.4523926 -2.897644 3.2440796 -2.897644l0 0c1.791626 0 3.2440796 1.2973328 3.2440796 2.897644l0 0c0 1.6003113 -1.4524536 2.897644 -3.2440796 2.897644l0 0c-1.791687 0 -3.2440796 -1.2973328 -3.2440796 -2.897644z" fill-rule="evenodd"/><path fill="#ffcb00" d="m548.5302 371.5328l0 0c0 -1.6003113 1.4523926 -2.897644 3.2440796 -2.897644l0 0c1.791626 0 3.2440796 1.2973328 3.2440796 2.897644l0 0c0 1.6003113 -1.4524536 2.897644 -3.2440796 2.897644l0 0c-1.791687 0 -3.2440796 -1.2973328 -3.2440796 -2.897644z" fill-rule="evenodd"/><path stroke="#ffcb00" stroke-width="2.0" stroke-linejoin="round" stroke-linecap="butt" d="m548.5302 371.5328l0 0c0 -1.6003113 1.4523926 -2.897644 3.2440796 -2.897644l0 0c1.791626 0 3.2440796 1.2973328 3.2440796 2.897644l0 0c0 1.6003113 -1.4524536 2.897644 -3.2440796 2.897644l0 0c-1.791687 0 -3.2440796 -1.2973328 -3.2440796 -2.897644z" fill-rule="evenodd"/><path fill="#ffcb00" d="m773.5197 220.6181l0 0c0 -1.6003113 1.4523926 -2.8976288 3.2440796 -2.8976288l0 0c1.791626 0 3.2440796 1.2973175 3.2440796 2.8976288l0 0c0 1.6003265 -1.4524536 2.897644 -3.2440796 2.897644l0 0c-1.791687 0 -3.2440796 -1.2973175 -3.2440796 -2.897644z" fill-rule="evenodd"/><path stroke="#ffcb00" stroke-width="2.0" stroke-linejoin="round" stroke-linecap="butt" d="m773.5197 220.6181l0 0c0 -1.6003113 1.4523926 -2.8976288 3.2440796 -2.8976288l0 0c1.791626 0 3.2440796 1.2973175 3.2440796 2.8976288l0 0c0 1.6003265 -1.4524536 2.897644 -3.2440796 2.897644l0 0c-1.791687 0 -3.2440796 -1.2973175 -3.2440796 -2.897644z" fill-rule="evenodd"/><path fill="#302681" d="m773.5197 206.6378l0 0c0 -1.6003265 1.4523926 -2.897644 3.2440796 -2.897644l0 0c1.791626 0 3.2440796 1.2973175 3.2440796 2.897644l0 0c0 1.6003113 -1.4524536 2.8976288 -3.2440796 2.8976288l0 0c-1.791687 0 -3.2440796 -1.2973175 -3.2440796 -2.8976288z" fill-rule="evenodd"/><path stroke="#302681" stroke-width="2.0" stroke-linejoin="round" stroke-linecap="butt" d="m773.5197 206.6378l0 0c0 -1.6003265 1.4523926 -2.897644 3.2440796 -2.897644l0 0c1.791626 0 3.2440796 1.2973175 3.2440796 2.897644l0 0c0 1.6003113 -1.4524536 2.8976288 -3.2440796 2.8976288l0 0c-1.791687 0 -3.2440796 -1.2973175 -3.2440796 -2.8976288z" fill-rule="evenodd"/><path fill="#009440" d="m625.0315 255.58792l0 0c0 -1.6003113 1.4524536 -2.8976288 3.2440796 -2.8976288l0 0c1.791687 0 3.2441406 1.2973175 3.2441406 2.8976288l0 0c0 1.6003113 -1.4524536 2.897644 -3.2441406 2.897644l0 0c-1.791626 0 -3.2440796 -1.2973328 -3.2440796 -2.897644z" fill-rule="evenodd"/><path stroke="#009440" stroke-width="2.0" stroke-linejoin="round" stroke-linecap="butt" d="m625.0315 255.58792l0 0c0 -1.6003113 1.4524536 -2.8976288 3.2440796 -2.8976288l0 0c1.791687 0 3.2441406 1.2973175 3.2441406 2.8976288l0 0c0 1.6003113 -1.4524536 2.897644 -3.2441406 2.897644l0 0c-1.791626 0 -3.2440796 -1.2973328 -3.2440796 -2.897644z" fill-rule="evenodd"/><path fill="#000000" fill-opacity="0.0" d="m591.17065 127.64736l-99.14963 36.000008" fill-rule="evenodd"/><path stroke="#ffffff" stroke-width="1.0" stroke-linejoin="round" stroke-linecap="butt" d="m591.17065 127.64736l-99.14963 36.000008" fill-rule="evenodd"/><path fill="#ffcb00" d="m486.4882 161.59842l0 0c0 -1.6003113 1.4524231 -2.8976288 3.2440796 -2.8976288l0 0c1.791687 0 3.24411 1.2973175 3.24411 2.8976288l0 0c0 1.6003265 -1.4524231 2.897644 -3.24411 2.897644l0 0c-1.7916565 0 -3.2440796 -1.2973175 -3.2440796 -2.897644z" fill-rule="evenodd"/><path stroke="#ffcb00" stroke-width="2.0" stroke-linejoin="round" stroke-linecap="butt" d="m486.4882 161.59842l0 0c0 -1.6003113 1.4524231 -2.8976288 3.2440796 -2.8976288l0 0c1.791687 0 3.24411 1.2973175 3.24411 2.8976288l0 0c0 1.6003265 -1.4524231 2.897644 -3.24411 2.897644l0 0c-1.7916565 0 -3.2440796 -1.2973175 -3.2440796 -2.897644z" fill-rule="evenodd"/><path fill="#009440" d="m590.22046 125.59843l0 0c0 -1.6003265 1.4524536 -2.8976364 3.2440796 -2.8976364l0 0c1.791687 0 3.2441406 1.2973099 3.2441406 2.8976364l0 0c0 1.6003189 -1.4524536 2.8976364 -3.2441406 2.8976364l0 0c-1.791626 0 -3.2440796 -1.2973175 -3.2440796 -2.8976364z" fill-rule="evenodd"/><path stroke="#009440" stroke-width="2.0" stroke-linejoin="round" stroke-linecap="butt" d="m590.22046 125.59843l0 0c0 -1.6003265 1.4524536 -2.8976364 3.2440796 -2.8976364l0 0c1.791687 0 3.2441406 1.2973099 3.2441406 2.8976364l0 0c0 1.6003189 -1.4524536 2.8976364 -3.2441406 2.8976364l0 0c-1.791626 0 -3.2440796 -1.2973175 -3.2440796 -2.8976364z" fill-rule="evenodd"/></g></svg>