<svg xmlns:xlink="http://www.w3.org/1999/xlink" xmlns="http://www.w3.org/2000/svg" version="1.1"
    viewBox="0.0 0.0 960.0 720.0" fill="none" stroke="none" stroke-linecap="square" stroke-miterlimit="10">
    <clipPath id="p.0">
        <path d="m0 0l960.0 0l0 720.0l-960.0 0l0 -720.0z" clip-rule="nonzero" />
    </clipPath>
    <g clip-path="url(#p.0)">
        <path fill="#000000" fill-opacity="0.0" d="m0 0l960.0 0l0 720.0l-960.0 0z" fill-rule="evenodd" />
        <path fill="#000000" fill-opacity="0.0" d="m561.5898 295.75006l0 -189.5433" fill-rule="evenodd" />
        <path stroke="#fff" stroke-width="10.0"
            d="m561.5898 295.75006l0 -189.5433" fill-rule="evenodd" />
        <path fill="#000000" fill-opacity="0.0" d="m765.12756 348.41742l9.858276 -180.22047" fill-rule="evenodd" />
        <path stroke="#fff" stroke-width="10.0"
            d="m765.12756 348.41742l9.858276 -180.22047" fill-rule="evenodd" />
        <path fill="#000000" fill-opacity="0.0" d="m288.98953 20.102356l276.91342 277.16534" fill-rule="evenodd" />
        <path stroke="#fff" stroke-width="10.0"
            d="m288.98953 20.102356l276.91342 277.16534" fill-rule="evenodd" />
        <path fill="#000000" fill-opacity="0.0" d="m288.98953 20.102356l12.188995 107.055115" fill-rule="evenodd" />
        <path stroke="#fff" stroke-width="10.0"
            d="m288.98953 20.102356l12.188995 107.055115" fill-rule="evenodd" />
        <path fill="#000000" fill-opacity="0.0" d="m677.18726 192.29408l-48.22046 297.54333" fill-rule="evenodd" />
        <path stroke="#fff" stroke-width="10.0"
            d="m677.18726 192.29408l-48.22046 297.54333" fill-rule="evenodd" />
        <path fill="#000000" fill-opacity="0.0" d="m423.90866 508.9288l101.95279 -80.75589" fill-rule="evenodd" />
        <path stroke="#fff" stroke-width="10.0"
            d="m423.90866 508.9288l101.95279 -80.75589" fill-rule="evenodd" />
        <path fill="#000000" fill-opacity="0.0" d="m557.2692 104.671486l-251.77954 31.401573" fill-rule="evenodd" />
        <path stroke="#fff" stroke-width="10.0"
            d="m557.2692 104.671486l-251.77954 31.401573" fill-rule="evenodd" />
        <path fill="#000000" fill-opacity="0.0" d="m142.0448 282.24893l74.897644 -30.834656" fill-rule="evenodd" />
        <path stroke="#fff" stroke-width="10.0"
            d="m142.0448 282.24893l74.897644 -30.834656" fill-rule="evenodd" />
        <path fill="#000000" fill-opacity="0.0" d="m840.6872 218.37518l-41.700745 90.80316" fill-rule="evenodd" />
        <path stroke="#fff" stroke-width="10.0"
            d="m840.6872 218.37518l-41.700745 90.80316" fill-rule="evenodd" />
        <path fill="#000000" fill-opacity="0.0" d="m840.6872 233.02597l0 -14.64566" fill-rule="evenodd" />
        <path stroke="#fff" stroke-width="10.0"
            d="m840.6872 233.02597l0 -14.64566" fill-rule="evenodd" />
        <path fill="#000000" fill-opacity="0.0" d="m774.9744 168.20297l61.385864 41.259842" fill-rule="evenodd" />
        <path stroke="#fff" stroke-width="10.0"
            d="m774.9744 168.20297l61.385864 41.259842" fill-rule="evenodd" />
        <path fill="#000000" fill-opacity="0.0" d="m648.96375 137.58969l115.590576 26.929138" fill-rule="evenodd" />
        <path stroke="#fff" stroke-width="10.0"
            d="m648.96375 137.58969l115.590576 26.929138" fill-rule="evenodd" />
        <path fill="#000000" fill-opacity="0.0" d="m554.04675 408.9649l-86.456696 283.2126" fill-rule="evenodd" />
        <path stroke="#fff" stroke-width="10.0"
            d="m554.04675 408.9649l-86.456696 283.2126" fill-rule="evenodd" />
        <path fill="#000000" fill-opacity="0.0" d="m380.1819 398.57013l177.10236 -93.921234" fill-rule="evenodd" />
        <path stroke="#fff" stroke-width="10.0"
            d="m380.1819 398.57013l177.10236 -93.921234" fill-rule="evenodd" />
        <path fill="#000000" fill-opacity="0.0" d="m557.2692 304.64853l233.07086 11.905518" fill-rule="evenodd" />
        <path stroke="#fff" stroke-width="10.0"
            d="m557.2692 304.64853l233.07086 11.905518" fill-rule="evenodd" />
        <path fill="#000000" fill-opacity="0.0" d="m305.50528 136.06296l216.03152 283.2126" fill-rule="evenodd" />
        <path stroke="#fff" stroke-width="10.0"
            d="m305.50528 136.06296l216.03152 283.2126" fill-rule="evenodd" />
        <path fill="#000000" fill-opacity="0.0" d="m764.6065 351.9025l25.7323 -35.338562" fill-rule="evenodd" />
        <path stroke="#fff" stroke-width="10.0"
            d="m764.6065 351.9025l25.7323 -35.338562" fill-rule="evenodd" />
        <path fill="#000000" fill-opacity="0.0" d="m467.58545 692.16864l-49.795258 -178.01575" fill-rule="evenodd" />
        <path stroke="#fff" stroke-width="10.0"
            d="m467.58545 692.16864l-49.795258 -178.01575" fill-rule="evenodd" />
        <path fill="#000000" fill-opacity="0.0" d="m760.80695 357.3159l-131.84253 132.50394" fill-rule="evenodd" />
        <path stroke="#fff" stroke-width="10.0"
            d="m760.80695 357.3159l-131.84253 132.50394" fill-rule="evenodd" />
        <path fill="#000000" fill-opacity="0.0" d="m774.9744 168.20297l49.763794 118.677155" fill-rule="evenodd" />
        <path stroke="#fff" stroke-width="10.0"
            d="m774.9744 168.20297l49.763794 118.677155" fill-rule="evenodd" />
        <path fill="#000000" fill-opacity="0.0" d="m677.18726 192.29408l-115.590576 103.464584" fill-rule="evenodd" />
        <path stroke="#fff" stroke-width="10.0"
            d="m677.18726 192.29408l-115.590576 103.464584" fill-rule="evenodd" />
        <path fill="#000000" fill-opacity="0.0" d="m216.93452 251.40355l88.56694 -115.33858" fill-rule="evenodd" />
        <path stroke="#fff" stroke-width="10.0"
            d="m216.93452 251.40355l88.56694 -115.33858" fill-rule="evenodd" />
        <path fill="#000000" fill-opacity="0.0" d="m557.2692 304.64853l2.897583 99.1181" fill-rule="evenodd" />
        <path stroke="#fff" stroke-width="10.0"
            d="m557.2692 304.64853l2.897583 99.1181" fill-rule="evenodd" />
        <path fill="#000000" fill-opacity="0.0" d="m648.96375 137.58969l28.220459 54.708664" fill-rule="evenodd" />
        <path stroke="#fff" stroke-width="10.0"
            d="m648.96375 137.58969l28.220459 54.708664" fill-rule="evenodd" />
        <path fill="#000000" fill-opacity="0.0" d="m840.6872 243.45117l0 25.070862" fill-rule="evenodd" />
        <path stroke="#fff" stroke-width="10.0"
            d="m840.6872 243.45117l0 25.070862" fill-rule="evenodd" />
        <path fill="#000000" fill-opacity="0.0" d="m628.969 500.24875l12.189026 49.5748" fill-rule="evenodd" />
        <path stroke="#fff" stroke-width="10.0"
            d="m628.969 500.24875l12.189026 49.5748" fill-rule="evenodd" />
        <path fill="#000000" fill-opacity="0.0" d="m790.3388 316.56393l-231.9685 83.49606" fill-rule="evenodd" />
        <path stroke="#fff" stroke-width="10.0"
            d="m790.3388 316.56393l-231.9685 83.49606" fill-rule="evenodd" />
        <path fill="#000000" fill-opacity="0.0" d="m677.18726 192.29408l121.79529 124.28346" fill-rule="evenodd" />
        <path stroke="#fff" stroke-width="10.0"
            d="m677.18726 192.29408l121.79529 124.28346" fill-rule="evenodd" />
        <path fill="#000000" fill-opacity="0.0" d="m525.85284 428.16324l44.15747 133.73227" fill-rule="evenodd" />
        <path stroke="#fff" stroke-width="10.0"
            d="m525.85284 428.16324l44.15747 133.73227" fill-rule="evenodd" />
        <path fill="#000000" fill-opacity="0.0" d="m565.9104 104.671486l76.944885 27.71653" fill-rule="evenodd" />
        <path stroke="#fff" stroke-width="10.0"
            d="m565.9104 104.671486l76.944885 27.71653" fill-rule="evenodd" />
        <path fill="#000000" fill-opacity="0.0" d="m628.969 489.82355l-103.1181 -61.66928" fill-rule="evenodd" />
        <path stroke="#fff" stroke-width="10.0"
            d="m628.969 489.82355l-103.1181 -61.66928" fill-rule="evenodd" />
        <path fill="#000000" fill-opacity="0.0" d="m288.98953 20.102356l-146.92912 262.14172" fill-rule="evenodd" />
        <path stroke="#fff" stroke-width="10.0"
            d="m288.98953 20.102356l-146.92912 262.14172" fill-rule="evenodd" />
        <path fill="#000000" fill-opacity="0.0" d="m374.07166 393.35754l-232.0315 -111.1181" fill-rule="evenodd" />
        <path stroke="#fff" stroke-width="10.0"
            d="m374.07166 393.35754l-232.0315 -111.1181" fill-rule="evenodd" />
        <path fill="#000000" fill-opacity="0.0" d="m516.8407 655.69824l-44.944916 37.984253" fill-rule="evenodd" />
        <path stroke="#fff" stroke-width="10.0"
            d="m516.8407 655.69824l-44.944916 37.984253" fill-rule="evenodd" />
        <path fill="#000000" fill-opacity="0.0" d="m558.3673 400.06647l150.83466 103.653534" fill-rule="evenodd" />
        <path stroke="#fff" stroke-width="10.0"
            d="m558.3673 400.06647l150.83466 103.653534" fill-rule="evenodd" />
        <path fill="#302681"
            d="m622.85876 495.03616l0 0c0 -2.8788452 2.7356567 -5.212616 6.1102295 -5.212616l0 0c3.3746338 0 6.1102905 2.3337708 6.1102905 5.212616l0 0c0 2.8788452 -2.7356567 5.2125854 -6.1102905 5.2125854l0 0c-3.3745728 0 -6.1102295 -2.3337402 -6.1102295 -5.2125854z"
            fill-rule="evenodd" />
        <path stroke="#302681" stroke-width="15.0" stroke-linejoin="round" stroke-linecap="butt"
            d="m622.85876 495.03616l0 0c0 -2.8788452 2.7356567 -5.212616 6.1102295 -5.212616l0 0c3.3746338 0 6.1102905 2.3337708 6.1102905 5.212616l0 0c0 2.8788452 -2.7356567 5.2125854 -6.1102905 5.2125854l0 0c-3.3745728 0 -6.1102295 -2.3337402 -6.1102295 -5.2125854z"
            fill-rule="evenodd" />
        <path fill="#000000" fill-opacity="0.0" d="m760.80695 357.3159l-55.93701 144.88187" fill-rule="evenodd" />
        <path stroke="#fff" stroke-width="10.0"
            d="m760.80695 357.3159l-55.93701 144.88187" fill-rule="evenodd" />
        <path fill="#ffcb00"
            d="m131.61397 278.56305l0 0c0 -2.8788452 2.7356567 -5.2125854 6.1102448 -5.2125854l0 0c3.374588 0 6.1102295 2.3337402 6.1102295 5.2125854l0 0c0 2.8788452 -2.7356415 5.212616 -6.1102295 5.212616l0 0c-3.374588 0 -6.1102448 -2.3337708 -6.1102448 -5.212616z"
            fill-rule="evenodd" />
        <path stroke="#ffcb00" stroke-width="15.0" stroke-linejoin="round" stroke-linecap="butt"
            d="m131.61397 278.56305l0 0c0 -2.8788452 2.7356567 -5.2125854 6.1102448 -5.2125854l0 0c3.374588 0 6.1102295 2.3337402 6.1102295 5.2125854l0 0c0 2.8788452 -2.7356415 5.212616 -6.1102295 5.212616l0 0c-3.374588 0 -6.1102448 -2.3337708 -6.1102448 -5.212616z"
            fill-rule="evenodd" />
        <path fill="#ffcb00"
            d="m642.8535 132.37709l0 0c0 -2.87883 2.7356567 -5.212593 6.1102295 -5.212593l0 0c3.3745728 0 6.1102295 2.3337631 6.1102295 5.212593l0 0c0 2.8788452 -2.7356567 5.2126007 -6.1102295 5.2126007l0 0c-3.3745728 0 -6.1102295 -2.3337555 -6.1102295 -5.2126007z"
            fill-rule="evenodd" />
        <path stroke="#ffcb00" stroke-width="15.0" stroke-linejoin="round" stroke-linecap="butt"
            d="m642.8535 132.37709l0 0c0 -2.87883 2.7356567 -5.212593 6.1102295 -5.212593l0 0c3.3745728 0 6.1102295 2.3337631 6.1102295 5.212593l0 0c0 2.8788452 -2.7356567 5.2126007 -6.1102295 5.2126007l0 0c-3.3745728 0 -6.1102295 -2.3337555 -6.1102295 -5.2126007z"
            fill-rule="evenodd" />
        <path fill="#000000" fill-opacity="0.0" d="m824.7378 286.8853l15.937012 -18.362183" fill-rule="evenodd" />
        <path stroke="#fff" stroke-width="10.0"
            d="m824.7378 286.8853l15.937012 -18.362183" fill-rule="evenodd" />
        <path fill="#000000" fill-opacity="0.0" d="m380.1819 398.57013l37.606293 115.55908" fill-rule="evenodd" />
        <path stroke="#fff" stroke-width="10.0"
            d="m380.1819 398.57013l37.606293 115.55908" fill-rule="evenodd" />
        <path fill="#302681"
            d="m671.077 187.0815l0 0c0 -2.8788452 2.7356567 -5.2126007 6.1102295 -5.2126007l0 0c3.3745728 0 6.1102295 2.3337555 6.1102295 5.2126007l0 0c0 2.87883 -2.7356567 5.2125854 -6.1102295 5.2125854l0 0c-3.3745728 0 -6.1102295 -2.3337555 -6.1102295 -5.2125854z"
            fill-rule="evenodd" />
        <path stroke="#302681" stroke-width="15.0" stroke-linejoin="round" stroke-linecap="butt"
            d="m671.077 187.0815l0 0c0 -2.8788452 2.7356567 -5.2126007 6.1102295 -5.2126007l0 0c3.3745728 0 6.1102295 2.3337555 6.1102295 5.2126007l0 0c0 2.87883 -2.7356567 5.2125854 -6.1102295 5.2125854l0 0c-3.3745728 0 -6.1102295 -2.3337555 -6.1102295 -5.2125854z"
            fill-rule="evenodd" />
        <path fill="#ffcb00"
            d="m764.54364 164.5171l0 0c0 -2.8788452 2.7355957 -5.2126007 6.1102295 -5.2126007l0 0c3.3745728 0 6.1102295 2.3337555 6.1102295 5.2126007l0 0c0 2.87883 -2.7356567 5.2126007 -6.1102295 5.2126007l0 0c-3.3746338 0 -6.1102295 -2.3337708 -6.1102295 -5.2126007z"
            fill-rule="evenodd" />
        <path stroke="#ffcb00" stroke-width="15.0" stroke-linejoin="round" stroke-linecap="butt"
            d="m764.54364 164.5171l0 0c0 -2.8788452 2.7355957 -5.2126007 6.1102295 -5.2126007l0 0c3.3745728 0 6.1102295 2.3337555 6.1102295 5.2126007l0 0c0 2.87883 -2.7356567 5.2126007 -6.1102295 5.2126007l0 0c-3.3746338 0 -6.1102295 -2.3337708 -6.1102295 -5.2126007z"
            fill-rule="evenodd" />
        <path fill="#000000" fill-opacity="0.0" d="m798.98 309.1922l21.448792 -13.417328" fill-rule="evenodd" />
        <path stroke="#fff" stroke-width="10.0"
            d="m798.98 309.1922l21.448792 -13.417328" fill-rule="evenodd" />
        <path fill="#000000" fill-opacity="0.0" d="m700.5623 511.1035l-53.322876 43.93698" fill-rule="evenodd" />
        <path stroke="#fff" stroke-width="10.0"
            d="m700.5623 511.1035l-53.322876 43.93698" fill-rule="evenodd" />
        <path fill="#000000" fill-opacity="0.0" d="m288.98953 20.102356l202.83466 51.401573" fill-rule="evenodd" />
        <path stroke="#fff" stroke-width="10.0"
            d="m288.98953 20.102356l202.83466 51.401573" fill-rule="evenodd" />
        <path fill="#ffcb00"
            d="m698.77264 507.41763l0 0c0 -2.8788452 2.7356567 -5.212616 6.1102295 -5.212616l0 0c3.3746338 0 6.1102295 2.3337708 6.1102295 5.212616l0 0c0 2.8788147 -2.7355957 5.212555 -6.1102295 5.212555l0 0c-3.3745728 0 -6.1102295 -2.3337402 -6.1102295 -5.212555z"
            fill-rule="evenodd" />
        <path stroke="#ffcb00" stroke-width="15.0" stroke-linejoin="round" stroke-linecap="butt"
            d="m698.77264 507.41763l0 0c0 -2.8788452 2.7356567 -5.212616 6.1102295 -5.212616l0 0c3.3746338 0 6.1102295 2.3337708 6.1102295 5.212616l0 0c0 2.8788147 -2.7355957 5.212555 -6.1102295 5.212555l0 0c-3.3745728 0 -6.1102295 -2.3337402 -6.1102295 -5.212555z"
            fill-rule="evenodd" />
        <path fill="#302681"
            d="m818.62756 292.09793l0 0c0 -2.8788452 2.7356567 -5.212616 6.1102295 -5.212616l0 0c3.3745728 0 6.1102295 2.3337708 6.1102295 5.212616l0 0c0 2.8788147 -2.7356567 5.2125854 -6.1102295 5.2125854l0 0c-3.3745728 0 -6.1102295 -2.3337708 -6.1102295 -5.2125854z"
            fill-rule="evenodd" />
        <path stroke="#302681" stroke-width="15.0" stroke-linejoin="round" stroke-linecap="butt"
            d="m818.62756 292.09793l0 0c0 -2.8788452 2.7356567 -5.212616 6.1102295 -5.212616l0 0c3.3745728 0 6.1102295 2.3337708 6.1102295 5.212616l0 0c0 2.8788147 -2.7356567 5.2125854 -6.1102295 5.2125854l0 0c-3.3745728 0 -6.1102295 -2.3337708 -6.1102295 -5.2125854z"
            fill-rule="evenodd" />
        <path fill="#009440"
            d="m461.47522 697.3812l0 0c0 -2.8788452 2.7356567 -5.2125854 6.1102295 -5.2125854l0 0c3.3746033 0 6.1102295 2.3337402 6.1102295 5.2125854l0 0c0 2.8788452 -2.7356262 5.2125854 -6.1102295 5.2125854l0 0c-3.3745728 0 -6.1102295 -2.3337402 -6.1102295 -5.2125854z"
            fill-rule="evenodd" />
        <path stroke="#009440" stroke-width="15.0" stroke-linejoin="round" stroke-linecap="butt"
            d="m461.47522 697.3812l0 0c0 -2.8788452 2.7356567 -5.2125854 6.1102295 -5.2125854l0 0c3.3746033 0 6.1102295 2.3337402 6.1102295 5.2125854l0 0c0 2.8788452 -2.7356262 5.2125854 -6.1102295 5.2125854l0 0c-3.3745728 0 -6.1102295 -2.3337402 -6.1102295 -5.2125854z"
            fill-rule="evenodd" />
        <path fill="#009440"
            d="m282.8793 14.889757l0 0c0 -2.8788385 2.7356567 -5.212599 6.1102295 -5.212599l0 0c3.3746033 0 6.11026 2.3337603 6.11026 5.212599l0 0c0 2.8788395 -2.7356567 5.212599 -6.11026 5.212599l0 0c-3.3745728 0 -6.1102295 -2.3337593 -6.1102295 -5.212599z"
            fill-rule="evenodd" />
        <path stroke="#009440" stroke-width="15.0" stroke-linejoin="round" stroke-linecap="butt"
            d="m282.8793 14.889757l0 0c0 -2.8788385 2.7356567 -5.212599 6.1102295 -5.212599l0 0c3.3746033 0 6.11026 2.3337603 6.11026 5.212599l0 0c0 2.8788395 -2.7356567 5.212599 -6.11026 5.212599l0 0c-3.3745728 0 -6.1102295 -2.3337593 -6.1102295 -5.212599z"
            fill-rule="evenodd" />
        <path fill="#000000" fill-opacity="0.0" d="m561.5898 295.75006l279.0866 -77.38582" fill-rule="evenodd" />
        <path stroke="#fff" stroke-width="10.0"
            d="m561.5898 295.75006l279.0866 -77.38582" fill-rule="evenodd" />
        <path fill="#009440"
            d="m374.07166 393.35754l0 0c0 -2.8788452 2.7356567 -5.2125854 6.1102295 -5.2125854l0 0c3.3746033 0 6.11026 2.3337402 6.11026 5.2125854l0 0c0 2.8788452 -2.7356567 5.2125854 -6.11026 5.2125854l0 0c-3.3745728 0 -6.1102295 -2.3337402 -6.1102295 -5.2125854z"
            fill-rule="evenodd" />
        <path stroke="#009440" stroke-width="15.0" stroke-linejoin="round" stroke-linecap="butt"
            d="m374.07166 393.35754l0 0c0 -2.8788452 2.7356567 -5.2125854 6.1102295 -5.2125854l0 0c3.3746033 0 6.11026 2.3337402 6.11026 5.2125854l0 0c0 2.8788452 -2.7356567 5.2125854 -6.11026 5.2125854l0 0c-3.3745728 0 -6.1102295 -2.3337402 -6.1102295 -5.2125854z"
            fill-rule="evenodd" />
        <path fill="#ffcb00"
            d="m519.7426 422.95065l0 0c0 -2.8788452 2.7356567 -5.212616 6.1102295 -5.212616l0 0c3.3745728 0 6.1102295 2.3337708 6.1102295 5.212616l0 0c0 2.8788147 -2.7356567 5.2125854 -6.1102295 5.2125854l0 0c-3.3745728 0 -6.1102295 -2.3337708 -6.1102295 -5.2125854z"
            fill-rule="evenodd" />
        <path stroke="#ffcb00" stroke-width="15.0" stroke-linejoin="round" stroke-linecap="butt"
            d="m519.7426 422.95065l0 0c0 -2.8788452 2.7356567 -5.212616 6.1102295 -5.212616l0 0c3.3745728 0 6.1102295 2.3337708 6.1102295 5.212616l0 0c0 2.8788147 -2.7356567 5.2125854 -6.1102295 5.2125854l0 0c-3.3745728 0 -6.1102295 -2.3337708 -6.1102295 -5.2125854z"
            fill-rule="evenodd" />
        <path fill="#302681"
            d="m215.14488 247.71768l0 0c0 -2.87883 2.7356415 -5.2126007 6.1102295 -5.2126007l0 0c3.3746033 0 6.1102448 2.3337708 6.1102448 5.2126007l0 0c0 2.8788452 -2.7356415 5.2126007 -6.1102448 5.2126007l0 0c-3.374588 0 -6.1102295 -2.3337555 -6.1102295 -5.2126007z"
            fill-rule="evenodd" />
        <path stroke="#302681" stroke-width="15.0" stroke-linejoin="round" stroke-linecap="butt"
            d="m215.14488 247.71768l0 0c0 -2.87883 2.7356415 -5.2126007 6.1102295 -5.2126007l0 0c3.3746033 0 6.1102448 2.3337708 6.1102448 5.2126007l0 0c0 2.8788452 -2.7356415 5.2126007 -6.1102448 5.2126007l0 0c-3.374588 0 -6.1102295 -2.3337555 -6.1102295 -5.2126007z"
            fill-rule="evenodd" />
        <path fill="#302681"
            d="m547.9365 403.75232l0 0c0 -2.8788452 2.7356567 -5.2125854 6.1102295 -5.2125854l0 0c3.3745728 0 6.1102295 2.3337402 6.1102295 5.2125854l0 0c0 2.8788452 -2.7356567 5.2125854 -6.1102295 5.2125854l0 0c-3.3745728 0 -6.1102295 -2.3337402 -6.1102295 -5.2125854z"
            fill-rule="evenodd" />
        <path stroke="#302681" stroke-width="15.0" stroke-linejoin="round" stroke-linecap="butt"
            d="m547.9365 403.75232l0 0c0 -2.8788452 2.7356567 -5.2125854 6.1102295 -5.2125854l0 0c3.3745728 0 6.1102295 2.3337402 6.1102295 5.2125854l0 0c0 2.8788452 -2.7356567 5.2125854 -6.1102295 5.2125854l0 0c-3.3745728 0 -6.1102295 -2.3337402 -6.1102295 -5.2125854z"
            fill-rule="evenodd" />
        <path fill="#ffcb00"
            d="m788.54913 312.87805l0 0c0 -2.8788452 2.7356567 -5.2125854 6.1102295 -5.2125854l0 0c3.3745728 0 6.1102295 2.3337402 6.1102295 5.2125854l0 0c0 2.8788452 -2.7356567 5.212616 -6.1102295 5.212616l0 0c-3.3745728 0 -6.1102295 -2.3337708 -6.1102295 -5.212616z"
            fill-rule="evenodd" />
        <path stroke="#ffcb00" stroke-width="15.0" stroke-linejoin="round" stroke-linecap="butt"
            d="m788.54913 312.87805l0 0c0 -2.8788452 2.7356567 -5.2125854 6.1102295 -5.2125854l0 0c3.3745728 0 6.1102295 2.3337402 6.1102295 5.2125854l0 0c0 2.8788452 -2.7356567 5.212616 -6.1102295 5.212616l0 0c-3.3745728 0 -6.1102295 -2.3337708 -6.1102295 -5.212616z"
            fill-rule="evenodd" />
        <path fill="#009440"
            d="m754.6967 352.10327l0 0c0 -2.8788452 2.7356567 -5.2125854 6.1102295 -5.2125854l0 0c3.3745728 0 6.1102295 2.3337402 6.1102295 5.2125854l0 0c0 2.8788452 -2.7356567 5.212616 -6.1102295 5.212616l0 0c-3.3745728 0 -6.1102295 -2.3337708 -6.1102295 -5.212616z"
            fill-rule="evenodd" />
        <path stroke="#009440" stroke-width="15.0" stroke-linejoin="round" stroke-linecap="butt"
            d="m754.6967 352.10327l0 0c0 -2.8788452 2.7356567 -5.2125854 6.1102295 -5.2125854l0 0c3.3745728 0 6.1102295 2.3337402 6.1102295 5.2125854l0 0c0 2.8788452 -2.7356567 5.212616 -6.1102295 5.212616l0 0c-3.3745728 0 -6.1102295 -2.3337708 -6.1102295 -5.212616z"
            fill-rule="evenodd" />
        <path fill="#000000" fill-opacity="0.0" d="m491.83862 71.49106l63.653564 29.480316" fill-rule="evenodd" />
        <path stroke="#fff" stroke-width="10.0"
            d="m491.83862 71.49106l63.653564 29.480316" fill-rule="evenodd" />
        <path fill="#302681"
            d="m555.47955 100.98563l0 0c0 -2.8788452 2.7356567 -5.2126007 6.1102295 -5.2126007l0 0c3.3745728 0 6.1102295 2.3337555 6.1102295 5.2126007l0 0c0 2.8788376 -2.7356567 5.212593 -6.1102295 5.212593l0 0c-3.3745728 0 -6.1102295 -2.3337555 -6.1102295 -5.212593z"
            fill-rule="evenodd" />
        <path stroke="#302681" stroke-width="15.0" stroke-linejoin="round" stroke-linecap="butt"
            d="m555.47955 100.98563l0 0c0 -2.8788452 2.7356567 -5.2126007 6.1102295 -5.2126007l0 0c3.3745728 0 6.1102295 2.3337555 6.1102295 5.2126007l0 0c0 2.8788376 -2.7356567 5.212593 -6.1102295 5.212593l0 0c-3.3745728 0 -6.1102295 -2.3337555 -6.1102295 -5.212593z"
            fill-rule="evenodd" />
        <path fill="#009440"
            d="m834.57697 263.31454l0 0c0 -2.8788147 2.7356567 -5.2125854 6.1102295 -5.2125854l0 0c3.3746338 0 6.1102295 2.3337708 6.1102295 5.2125854l0 0c0 2.8788452 -2.7355957 5.212616 -6.1102295 5.212616l0 0c-3.3745728 0 -6.1102295 -2.3337708 -6.1102295 -5.212616z"
            fill-rule="evenodd" />
        <path stroke="#009440" stroke-width="15.0" stroke-linejoin="round" stroke-linecap="butt"
            d="m834.57697 263.31454l0 0c0 -2.8788147 2.7356567 -5.2125854 6.1102295 -5.2125854l0 0c3.3746338 0 6.1102295 2.3337708 6.1102295 5.2125854l0 0c0 2.8788452 -2.7355957 5.212616 -6.1102295 5.212616l0 0c-3.3745728 0 -6.1102295 -2.3337708 -6.1102295 -5.212616z"
            fill-rule="evenodd" />
        <path fill="#000000" fill-opacity="0.0" d="m636.82385 558.71796l-60.692932 8.409424" fill-rule="evenodd" />
        <path stroke="#fff" stroke-width="10.0"
            d="m636.82385 558.71796l-60.692932 8.409424" fill-rule="evenodd" />
        <path fill="#ffcb00"
            d="m635.0342 555.0321l0 0c0 -2.8788452 2.7356567 -5.2125854 6.1102905 -5.2125854l0 0c3.3745728 0 6.1102295 2.3337402 6.1102295 5.2125854l0 0c0 2.8788452 -2.7356567 5.2125854 -6.1102295 5.2125854l0 0c-3.3746338 0 -6.1102905 -2.3337402 -6.1102905 -5.2125854z"
            fill-rule="evenodd" />
        <path stroke="#ffcb00" stroke-width="15.0" stroke-linejoin="round" stroke-linecap="butt"
            d="m635.0342 555.0321l0 0c0 -2.8788452 2.7356567 -5.2125854 6.1102905 -5.2125854l0 0c3.3745728 0 6.1102295 2.3337402 6.1102295 5.2125854l0 0c0 2.8788452 -2.7356567 5.2125854 -6.1102295 5.2125854l0 0c-3.3746338 0 -6.1102905 -2.3337402 -6.1102905 -5.2125854z"
            fill-rule="evenodd" />
        <path fill="#000000" fill-opacity="0.0" d="m565.7052 570.80286l-40.22052 77.51178" fill-rule="evenodd" />
        <path stroke="#fff" stroke-width="10.0"
            d="m565.7052 570.80286l-40.22052 77.51178" fill-rule="evenodd" />
        <path fill="#ffcb00"
            d="m515.051 652.0123l0 0c0 -2.8788452 2.7356567 -5.2125854 6.1102295 -5.2125854l0 0c3.3745728 0 6.1102295 2.3337402 6.1102295 5.2125854l0 0c0 2.8788452 -2.7356567 5.2126465 -6.1102295 5.2126465l0 0c-3.3745728 0 -6.1102295 -2.3338013 -6.1102295 -5.2126465z"
            fill-rule="evenodd" />
        <path stroke="#ffcb00" stroke-width="15.0" stroke-linejoin="round" stroke-linecap="butt"
            d="m515.051 652.0123l0 0c0 -2.8788452 2.7356567 -5.2125854 6.1102295 -5.2125854l0 0c3.3745728 0 6.1102295 2.3337402 6.1102295 5.2125854l0 0c0 2.8788452 -2.7356567 5.2126465 -6.1102295 5.2126465l0 0c-3.3745728 0 -6.1102295 -2.3338013 -6.1102295 -5.2126465z"
            fill-rule="evenodd" />
        <path fill="#009440"
            d="m563.9155 567.11694l0 0c0 -2.8788452 2.7356567 -5.2125854 6.1102295 -5.2125854l0 0c3.3745728 0 6.1102295 2.3337402 6.1102295 5.2125854l0 0c0 2.8788452 -2.7356567 5.2126465 -6.1102295 5.2126465l0 0c-3.3745728 0 -6.1102295 -2.3338013 -6.1102295 -5.2126465z"
            fill-rule="evenodd" />
        <path stroke="#009440" stroke-width="15.0" stroke-linejoin="round" stroke-linecap="butt"
            d="m563.9155 567.11694l0 0c0 -2.8788452 2.7356567 -5.2125854 6.1102295 -5.2125854l0 0c3.3745728 0 6.1102295 2.3337402 6.1102295 5.2125854l0 0c0 2.8788452 -2.7356567 5.2126465 -6.1102295 5.2126465l0 0c-3.3745728 0 -6.1102295 -2.3338013 -6.1102295 -5.2126465z"
            fill-rule="evenodd" />
        <path fill="#ffcb00"
            d="m411.6882 508.9288l0 0c0 -2.8788147 2.7356262 -5.2125854 6.1102295 -5.2125854l0 0c3.3745728 0 6.1102295 2.3337708 6.1102295 5.2125854l0 0c0 2.8788452 -2.7356567 5.212616 -6.1102295 5.212616l0 0c-3.3746033 0 -6.1102295 -2.3337708 -6.1102295 -5.212616z"
            fill-rule="evenodd" />
        <path stroke="#ffcb00" stroke-width="15.0" stroke-linejoin="round" stroke-linecap="butt"
            d="m411.6882 508.9288l0 0c0 -2.8788147 2.7356262 -5.2125854 6.1102295 -5.2125854l0 0c3.3745728 0 6.1102295 2.3337708 6.1102295 5.2125854l0 0c0 2.8788452 -2.7356567 5.212616 -6.1102295 5.212616l0 0c-3.3746033 0 -6.1102295 -2.3337708 -6.1102295 -5.212616z"
            fill-rule="evenodd" />
        <path fill="#ffcb00"
            d="m834.57697 238.23857l0 0c0 -2.87883 2.7356567 -5.2126007 6.1102295 -5.2126007l0 0c3.3746338 0 6.1102295 2.3337708 6.1102295 5.2126007l0 0c0 2.8788452 -2.7355957 5.2126007 -6.1102295 5.2126007l0 0c-3.3745728 0 -6.1102295 -2.3337555 -6.1102295 -5.2126007z"
            fill-rule="evenodd" />
        <path stroke="#ffcb00" stroke-width="15.0" stroke-linejoin="round" stroke-linecap="butt"
            d="m834.57697 238.23857l0 0c0 -2.87883 2.7356567 -5.2126007 6.1102295 -5.2126007l0 0c3.3746338 0 6.1102295 2.3337708 6.1102295 5.2126007l0 0c0 2.8788452 -2.7355957 5.2126007 -6.1102295 5.2126007l0 0c-3.3745728 0 -6.1102295 -2.3337555 -6.1102295 -5.2126007z"
            fill-rule="evenodd" />
        <path fill="#302681"
            d="m834.57697 213.16258l0 0c0 -2.87883 2.7356567 -5.2126007 6.1102295 -5.2126007l0 0c3.3746338 0 6.1102295 2.3337708 6.1102295 5.2126007l0 0c0 2.8788452 -2.7355957 5.2126007 -6.1102295 5.2126007l0 0c-3.3745728 0 -6.1102295 -2.3337555 -6.1102295 -5.2126007z"
            fill-rule="evenodd" />
        <path stroke="#302681" stroke-width="15.0" stroke-linejoin="round" stroke-linecap="butt"
            d="m834.57697 213.16258l0 0c0 -2.87883 2.7356567 -5.2126007 6.1102295 -5.2126007l0 0c3.3746338 0 6.1102295 2.3337708 6.1102295 5.2126007l0 0c0 2.8788452 -2.7355957 5.2126007 -6.1102295 5.2126007l0 0c-3.3745728 0 -6.1102295 -2.3337555 -6.1102295 -5.2126007z"
            fill-rule="evenodd" />
        <path fill="#009440"
            d="m555.47955 300.96268l0 0c0 -2.8788452 2.7356567 -5.212616 6.1102295 -5.212616l0 0c3.3745728 0 6.1102295 2.3337708 6.1102295 5.212616l0 0c0 2.8788452 -2.7356567 5.2125854 -6.1102295 5.2125854l0 0c-3.3745728 0 -6.1102295 -2.3337402 -6.1102295 -5.2125854z"
            fill-rule="evenodd" />
        <path stroke="#009440" stroke-width="15.0" stroke-linejoin="round" stroke-linecap="butt"
            d="m555.47955 300.96268l0 0c0 -2.8788452 2.7356567 -5.212616 6.1102295 -5.212616l0 0c3.3745728 0 6.1102295 2.3337708 6.1102295 5.212616l0 0c0 2.8788452 -2.7356567 5.2125854 -6.1102295 5.2125854l0 0c-3.3745728 0 -6.1102295 -2.3337402 -6.1102295 -5.2125854z"
            fill-rule="evenodd" />
        <path fill="#fff" fill-opacity="0.0" d="m491.83862 71.49106l-186.33069 64.566925" fill-rule="evenodd" />
        <path stroke="#fff" stroke-width="15.0" stroke-linejoin="round" stroke-linecap="round"
            d="m491.83862 71.49106l-186.33069 64.566925" fill-rule="evenodd" />
        <path fill="#ffcb00"
            d="m295.07446 132.37709l0 0c0 -2.87883 2.7356567 -5.212593 6.1102295 -5.212593l0 0c3.3746033 0 6.11026 2.3337631 6.11026 5.212593l0 0c0 2.8788452 -2.7356567 5.2126007 -6.11026 5.2126007l0 0c-3.3745728 0 -6.1102295 -2.3337555 -6.1102295 -5.2126007z"
            fill-rule="evenodd" />
        <path stroke="#ffcb00" stroke-width="15.0" stroke-linejoin="round" stroke-linecap="butt"
            d="m295.07446 132.37709l0 0c0 -2.87883 2.7356567 -5.212593 6.1102295 -5.212593l0 0c3.3746033 0 6.11026 2.3337631 6.11026 5.212593l0 0c0 2.8788452 -2.7356567 5.2126007 -6.11026 5.2126007l0 0c-3.3745728 0 -6.1102295 -2.3337555 -6.1102295 -5.2126007z"
            fill-rule="evenodd" />
        <path fill="#009440"
            d="m490.04898 67.8052l0 0c0 -2.8788452 2.7356567 -5.2126007 6.1102295 -5.2126007l0 0c3.3746033 0 6.11026 2.3337555 6.11026 5.2126007l0 0c0 2.8788376 -2.7356567 5.212593 -6.11026 5.212593l0 0c-3.3745728 0 -6.1102295 -2.3337555 -6.1102295 -5.212593z"
            fill-rule="evenodd" />
        <path stroke="#009440" stroke-width="15.0" stroke-linejoin="round" stroke-linecap="butt"
            d="m490.04898 67.8052l0 0c0 -2.8788452 2.7356567 -5.2126007 6.1102295 -5.2126007l0 0c3.3746033 0 6.11026 2.3337555 6.11026 5.2126007l0 0c0 2.8788376 -2.7356567 5.212593 -6.11026 5.212593l0 0c-3.3745728 0 -6.1102295 -2.3337555 -6.1102295 -5.212593z"
            fill-rule="evenodd" />
    </g>
</svg>