<svg version="1.1" viewBox="0.0 0.0 960.0 960.0" fill="none" stroke="none" stroke-linecap="square" stroke-miterlimit="10" xmlns:xlink="http://www.w3.org/1999/xlink" xmlns="http://www.w3.org/2000/svg"><clipPath id="p.0"><path d="m0 0l960.0 0l0 960.0l-960.0 0l0 -960.0z" clip-rule="nonzero"/></clipPath><g clip-path="url(#p.0)"><path fill="#000000" fill-opacity="0.0" d="m0 0l960.0 0l0 960.0l-960.0 0z" fill-rule="evenodd"/><path fill="#000000" fill-opacity="0.3354" d="m0 480.0l0 0c0 -265.09668 214.90332 -480.0 480.0 -480.0l0 0c127.303894 0 249.3938 50.571285 339.41125 140.58875c90.017456 90.017456 140.58875 212.10733 140.58875 339.41125l0 0c0 265.09668 -214.90332 480.0 -480.0 480.0l0 0c-265.09668 0 -480.0 -214.90332 -480.0 -480.0z" fill-rule="evenodd"/><path fill="#000000" fill-opacity="0.0" d="m311.50754 201.50279l74.677155 336.12598" fill-rule="evenodd"/><path stroke="#ffffff" stroke-width="8.0" stroke-linejoin="round" stroke-linecap="butt" d="m311.50754 201.50279l74.677155 336.12598" fill-rule="evenodd"/><path fill="#000000" fill-opacity="0.0" d="m305.4541 72.695526c0 77.45859 -38.2677 115.93294 -76.535416 154.91719c-38.267715 38.984238 -76.53543 78.47841 -76.53543 156.95683" fill-rule="evenodd"/><path stroke="#ffffff" stroke-width="8.0" stroke-linejoin="round" stroke-linecap="butt" d="m305.4541 72.695526c0 77.45859 -38.2677 115.93294 -76.535416 154.91719c-38.267715 38.984238 -76.53543 78.47841 -76.53543 156.95683" fill-rule="evenodd"/><path fill="#000000" fill-opacity="0.0" d="m235.89854 353.25613l150.29921 184.37796" fill-rule="evenodd"/><path stroke="#ffffff" stroke-width="8.0" stroke-linejoin="round" stroke-linecap="butt" d="m235.89854 353.25613l150.29921 184.37796" fill-rule="evenodd"/><path fill="#000000" fill-opacity="0.0" d="m571.9126 412.3938l0 -252.7559" fill-rule="evenodd"/><path stroke="#ffffff" stroke-width="8.0" stroke-linejoin="round" stroke-linecap="butt" d="m571.9126 412.3938l0 -252.7559" fill-rule="evenodd"/><path fill="#000000" fill-opacity="0.0" d="m715.20575 701.5568l-66.17328 -17.669312" fill-rule="evenodd"/><path stroke="#ffffff" stroke-width="8.0" stroke-linejoin="round" stroke-linecap="butt" d="m715.20575 701.5568l-66.17328 -17.669312" fill-rule="evenodd"/><path fill="#000000" fill-opacity="0.0" d="m305.4541 72.695526l270.77167 341.7323" fill-rule="evenodd"/><path stroke="#ffffff" stroke-width="8.0" stroke-linejoin="round" stroke-linecap="butt" d="m305.4541 72.695526l270.77167 341.7323" fill-rule="evenodd"/><path fill="#000000" fill-opacity="0.0" d="m305.4541 72.695526l6.0472717 114.92914" fill-rule="evenodd"/><path stroke="#ffffff" stroke-width="8.0" stroke-linejoin="round" stroke-linecap="butt" d="m305.4541 72.695526l6.0472717 114.92914" fill-rule="evenodd"/><path fill="#000000" fill-opacity="0.0" d="m568.6902 551.4808l-32.503967 37.44879" fill-rule="evenodd"/><path stroke="#ffffff" stroke-width="8.0" stroke-linejoin="round" stroke-linecap="butt" d="m568.6902 551.4808l-32.503967 37.44879" fill-rule="evenodd"/><path fill="#000000" fill-opacity="0.0" d="m434.2315 696.6269l101.95276 -107.68506" fill-rule="evenodd"/><path stroke="#ffffff" stroke-width="8.0" stroke-linejoin="round" stroke-linecap="butt" d="m434.2315 696.6269l101.95276 -107.68506" fill-rule="evenodd"/><path fill="#000000" fill-opacity="0.0" d="m152.36763 394.3833l74.897644 -41.13385" fill-rule="evenodd"/><path stroke="#ffffff" stroke-width="8.0" stroke-linejoin="round" stroke-linecap="butt" d="m152.36763 394.3833l74.897644 -41.13385" fill-rule="evenodd"/><path fill="#000000" fill-opacity="0.0" d="m152.36763 384.56174l163.46458 -185.10234" fill-rule="evenodd"/><path stroke="#ffffff" stroke-width="8.0" stroke-linejoin="round" stroke-linecap="butt" d="m152.36763 384.56174l163.46458 -185.10234" fill-rule="evenodd"/><path fill="#000000" fill-opacity="0.0" d="m854.6793 309.01468l-41.700745 121.102356" fill-rule="evenodd"/><path stroke="#ffffff" stroke-width="8.0" stroke-linejoin="round" stroke-linecap="butt" d="m854.6793 309.01468l-41.700745 121.102356" fill-rule="evenodd"/><path fill="#000000" fill-opacity="0.0" d="m851.0101 328.76166l0 -19.559052" fill-rule="evenodd"/><path stroke="#ffffff" stroke-width="8.0" stroke-linejoin="round" stroke-linecap="butt" d="m851.0101 328.76166l0 -19.559052" fill-rule="evenodd"/><path fill="#000000" fill-opacity="0.0" d="m785.2973 242.32204l61.385803 55.023605" fill-rule="evenodd"/><path stroke="#ffffff" stroke-width="8.0" stroke-linejoin="round" stroke-linecap="butt" d="m785.2973 242.32204l61.385803 55.023605" fill-rule="evenodd"/><path fill="#000000" fill-opacity="0.0" d="m659.28656 201.50279l115.590576 35.905518" fill-rule="evenodd"/><path stroke="#ffffff" stroke-width="8.0" stroke-linejoin="round" stroke-linecap="butt" d="m659.28656 201.50279l115.590576 35.905518" fill-rule="evenodd"/><path fill="#000000" fill-opacity="0.0" d="m536.17566 588.9342l110.96063 174.07874" fill-rule="evenodd"/><path stroke="#ffffff" stroke-width="8.0" stroke-linejoin="round" stroke-linecap="butt" d="m536.17566 588.9342l110.96063 174.07874" fill-rule="evenodd"/><path fill="#000000" fill-opacity="0.0" d="m390.50473 549.47675l177.10239 -125.22836" fill-rule="evenodd"/><path stroke="#ffffff" stroke-width="8.0" stroke-linejoin="round" stroke-linecap="butt" d="m390.50473 549.47675l177.10239 -125.22836" fill-rule="evenodd"/><path fill="#000000" fill-opacity="0.0" d="m536.7259 574.86365l30.86615 -150.6142" fill-rule="evenodd"/><path stroke="#ffffff" stroke-width="8.0" stroke-linejoin="round" stroke-linecap="butt" d="m536.7259 574.86365l30.86615 -150.6142" fill-rule="evenodd"/><path fill="#000000" fill-opacity="0.0" d="m315.82812 199.46869l216.0315 377.60632" fill-rule="evenodd"/><path stroke="#ffffff" stroke-width="8.0" stroke-linejoin="round" stroke-linecap="butt" d="m315.82812 199.46869l216.0315 377.60632" fill-rule="evenodd"/><path fill="#000000" fill-opacity="0.0" d="m774.9293 487.25476l25.7323 -47.118134" fill-rule="evenodd"/><path stroke="#ffffff" stroke-width="8.0" stroke-linejoin="round" stroke-linecap="butt" d="m774.9293 487.25476l25.7323 -47.118134" fill-rule="evenodd"/><path fill="#000000" fill-opacity="0.0" d="m785.2973 242.32204l-93.48035 30.07872" fill-rule="evenodd"/><path stroke="#ffffff" stroke-width="8.0" stroke-linejoin="round" stroke-linecap="butt" d="m785.2973 242.32204l-93.48035 30.07872" fill-rule="evenodd"/><path fill="#000000" fill-opacity="0.0" d="m477.9083 932.95184l-49.795288 -229.3858" fill-rule="evenodd"/><path stroke="#ffffff" stroke-width="8.0" stroke-linejoin="round" stroke-linecap="butt" d="m477.9083 932.95184l-49.795288 -229.3858" fill-rule="evenodd"/><path fill="#000000" fill-opacity="0.0" d="m771.1298 494.47104l-131.84253 176.6929" fill-rule="evenodd"/><path stroke="#ffffff" stroke-width="8.0" stroke-linejoin="round" stroke-linecap="butt" d="m771.1298 494.47104l-131.84253 176.6929" fill-rule="evenodd"/><path fill="#000000" fill-opacity="0.0" d="m694.1968 276.13278l161.13385 21.228333" fill-rule="evenodd"/><path stroke="#ffffff" stroke-width="8.0" stroke-linejoin="round" stroke-linecap="butt" d="m694.1968 276.13278l161.13385 21.228333" fill-rule="evenodd"/><path fill="#000000" fill-opacity="0.0" d="m687.5101 274.442l-115.590515 137.95276" fill-rule="evenodd"/><path stroke="#ffffff" stroke-width="8.0" stroke-linejoin="round" stroke-linecap="butt" d="m687.5101 274.442l-115.590515 137.95276" fill-rule="evenodd"/><path fill="#000000" fill-opacity="0.0" d="m227.25737 353.25613l88.56691 -153.79527" fill-rule="evenodd"/><path stroke="#ffffff" stroke-width="8.0" stroke-linejoin="round" stroke-linecap="butt" d="m227.25737 353.25613l88.56691 -153.79527" fill-rule="evenodd"/><path fill="#000000" fill-opacity="0.0" d="m567.59204 424.24945l2.897644 132.15747" fill-rule="evenodd"/><path stroke="#ffffff" stroke-width="8.0" stroke-linejoin="round" stroke-linecap="butt" d="m567.59204 424.24945l2.897644 132.15747" fill-rule="evenodd"/><path fill="#000000" fill-opacity="0.0" d="m659.28656 201.50279l28.22052 72.94487" fill-rule="evenodd"/><path stroke="#ffffff" stroke-width="8.0" stroke-linejoin="round" stroke-linecap="butt" d="m659.28656 201.50279l28.22052 72.94487" fill-rule="evenodd"/><path fill="#000000" fill-opacity="0.0" d="m851.0101 342.65143l0 33.448822" fill-rule="evenodd"/><path stroke="#ffffff" stroke-width="8.0" stroke-linejoin="round" stroke-linecap="butt" d="m851.0101 342.65143l0 33.448822" fill-rule="evenodd"/><path fill="#000000" fill-opacity="0.0" d="m639.2919 685.0482l12.188965 66.11023" fill-rule="evenodd"/><path stroke="#ffffff" stroke-width="8.0" stroke-linejoin="round" stroke-linecap="butt" d="m639.2919 685.0482l12.188965 66.11023" fill-rule="evenodd"/><path fill="#000000" fill-opacity="0.0" d="m771.1298 494.47104l-202.42523 57.007843" fill-rule="evenodd"/><path stroke="#ffffff" stroke-width="8.0" stroke-linejoin="round" stroke-linecap="butt" d="m771.1298 494.47104l-202.42523 57.007843" fill-rule="evenodd"/><path fill="#000000" fill-opacity="0.0" d="m687.5101 274.442l121.79529 165.70078" fill-rule="evenodd"/><path stroke="#ffffff" stroke-width="8.0" stroke-linejoin="round" stroke-linecap="butt" d="m687.5101 274.442l121.79529 165.70078" fill-rule="evenodd"/><path fill="#000000" fill-opacity="0.0" d="m536.17566 588.9342l44.15753 178.33069" fill-rule="evenodd"/><path stroke="#ffffff" stroke-width="8.0" stroke-linejoin="round" stroke-linecap="butt" d="m536.17566 588.9342l44.15753 178.33069" fill-rule="evenodd"/><path fill="#000000" fill-opacity="0.0" d="m576.2332 157.61339l76.944885 36.944885" fill-rule="evenodd"/><path stroke="#ffffff" stroke-width="8.0" stroke-linejoin="round" stroke-linecap="butt" d="m576.2332 157.61339l76.944885 36.944885" fill-rule="evenodd"/><path fill="#000000" fill-opacity="0.0" d="m639.2919 671.15845l-103.1181 -82.236206" fill-rule="evenodd"/><path stroke="#ffffff" stroke-width="8.0" stroke-linejoin="round" stroke-linecap="butt" d="m639.2919 671.15845l-103.1181 -82.236206" fill-rule="evenodd"/><path fill="#000000" fill-opacity="0.0" d="m384.3945 542.53186l-232.03151 -148.1575" fill-rule="evenodd"/><path stroke="#ffffff" stroke-width="8.0" stroke-linejoin="round" stroke-linecap="butt" d="m384.3945 542.53186l-232.03151 -148.1575" fill-rule="evenodd"/><path fill="#000000" fill-opacity="0.0" d="m527.1635 892.3157l-44.944885 42.677185" fill-rule="evenodd"/><path stroke="#ffffff" stroke-width="8.0" stroke-linejoin="round" stroke-linecap="butt" d="m527.1635 892.3157l-44.944885 42.677185" fill-rule="evenodd"/><path fill="#000000" fill-opacity="0.0" d="m691.8307 272.40787l-124.25195 -114.80315" fill-rule="evenodd"/><path stroke="#ffffff" stroke-width="8.0" stroke-linejoin="round" stroke-linecap="butt" d="m691.8307 272.40787l-124.25195 -114.80315" fill-rule="evenodd"/><path fill="#000000" fill-opacity="0.0" d="m568.6902 551.4808l76.72443 126.6142" fill-rule="evenodd"/><path stroke="#ffffff" stroke-width="8.0" stroke-linejoin="round" stroke-linecap="butt" d="m568.6902 551.4808l76.72443 126.6142" fill-rule="evenodd"/><path fill="#302681" d="m633.18164 678.10333l0 0c0 -3.8355713 2.7355957 -6.9448853 6.1102295 -6.9448853l0 0c1.6205444 0 3.1746826 0.73168945 4.3205566 2.0341187c1.145935 1.3024292 1.7896729 3.0688477 1.7896729 4.9107666l0 0c0 3.8355713 -2.7356567 6.9448853 -6.1102295 6.9448853l0 0c-3.3746338 0 -6.1102295 -3.109314 -6.1102295 -6.9448853z" fill-rule="evenodd"/><path stroke="#302681" stroke-width="16.0" stroke-linejoin="round" stroke-linecap="butt" d="m633.18164 678.10333l0 0c0 -3.8355713 2.7355957 -6.9448853 6.1102295 -6.9448853l0 0c1.6205444 0 3.1746826 0.73168945 4.3205566 2.0341187c1.145935 1.3024292 1.7896729 3.0688477 1.7896729 4.9107666l0 0c0 3.8355713 -2.7356567 6.9448853 -6.1102295 6.9448853l0 0c-3.3746338 0 -6.1102295 -3.109314 -6.1102295 -6.9448853z" fill-rule="evenodd"/><path fill="#000000" fill-opacity="0.0" d="m771.1298 494.47104l-55.93701 193.19687" fill-rule="evenodd"/><path stroke="#ffffff" stroke-width="8.0" stroke-linejoin="round" stroke-linecap="butt" d="m771.1298 494.47104l-55.93701 193.19687" fill-rule="evenodd"/><path fill="#ffcb00" d="m141.93681 389.47253l0 0c0 -3.8355713 2.7356415 -6.9448853 6.1102295 -6.9448853l0 0c1.6205444 0 3.1746979 0.73168945 4.320587 2.0340881c1.1459045 1.3024292 1.7896576 3.0688782 1.7896576 4.910797l0 0c0 3.8355408 -2.7356567 6.9448853 -6.1102448 6.9448853l0 0c-3.374588 0 -6.1102295 -3.1093445 -6.1102295 -6.9448853z" fill-rule="evenodd"/><path stroke="#ffcb00" stroke-width="16.0" stroke-linejoin="round" stroke-linecap="butt" d="m141.93681 389.47253l0 0c0 -3.8355713 2.7356415 -6.9448853 6.1102295 -6.9448853l0 0c1.6205444 0 3.1746979 0.73168945 4.320587 2.0340881c1.1459045 1.3024292 1.7896576 3.0688782 1.7896576 4.910797l0 0c0 3.8355408 -2.7356567 6.9448853 -6.1102448 6.9448853l0 0c-3.374588 0 -6.1102295 -3.1093445 -6.1102295 -6.9448853z" fill-rule="evenodd"/><path fill="#000000" fill-opacity="0.0" d="m390.50473 535.587l141.35434 51.307068" fill-rule="evenodd"/><path stroke="#ffffff" stroke-width="8.0" stroke-linejoin="round" stroke-linecap="butt" d="m390.50473 535.587l141.35434 51.307068" fill-rule="evenodd"/><path fill="#ffcb00" d="m653.17633 194.5579l0 0c0 -3.8355408 2.7356567 -6.94487 6.1102295 -6.94487l0 0c1.6205444 0 3.1747437 0.73168945 4.3206177 2.0341034c1.145874 1.302414 1.7896729 3.0688782 1.7896729 4.9107666l0 0c0 3.835556 -2.7356567 6.9448853 -6.1102905 6.9448853l0 0c-3.3745728 0 -6.1102295 -3.1093292 -6.1102295 -6.9448853z" fill-rule="evenodd"/><path stroke="#ffcb00" stroke-width="16.0" stroke-linejoin="round" stroke-linecap="butt" d="m653.17633 194.5579l0 0c0 -3.8355408 2.7356567 -6.94487 6.1102295 -6.94487l0 0c1.6205444 0 3.1747437 0.73168945 4.3206177 2.0341034c1.145874 1.302414 1.7896729 3.0688782 1.7896729 4.9107666l0 0c0 3.835556 -2.7356567 6.9448853 -6.1102905 6.9448853l0 0c-3.3745728 0 -6.1102295 -3.1093292 -6.1102295 -6.9448853z" fill-rule="evenodd"/><path fill="#000000" fill-opacity="0.0" d="m835.0606 400.57413l15.937012 -24.472443" fill-rule="evenodd"/><path stroke="#ffffff" stroke-width="8.0" stroke-linejoin="round" stroke-linecap="butt" d="m835.0606 400.57413l15.937012 -24.472443" fill-rule="evenodd"/><path fill="#000000" fill-opacity="0.0" d="m390.50473 549.47675l37.606293 154.11023" fill-rule="evenodd"/><path stroke="#ffffff" stroke-width="8.0" stroke-linejoin="round" stroke-linecap="butt" d="m390.50473 549.47675l37.606293 154.11023" fill-rule="evenodd"/><path fill="#302681" d="m681.39984 267.4971l0 0c0 -3.8355408 2.7356567 -6.9448853 6.1102295 -6.9448853l0 0c1.6205444 0 3.1746826 0.73168945 4.3206177 2.0341187c1.145874 1.3024292 1.7896118 3.0688782 1.7896118 4.9107666l0 0c0 3.8355408 -2.7355957 6.9448853 -6.1102295 6.9448853l0 0c-3.3745728 0 -6.1102295 -3.1093445 -6.1102295 -6.9448853z" fill-rule="evenodd"/><path stroke="#302681" stroke-width="16.0" stroke-linejoin="round" stroke-linecap="butt" d="m681.39984 267.4971l0 0c0 -3.8355408 2.7356567 -6.9448853 6.1102295 -6.9448853l0 0c1.6205444 0 3.1746826 0.73168945 4.3206177 2.0341187c1.145874 1.3024292 1.7896118 3.0688782 1.7896118 4.9107666l0 0c0 3.8355408 -2.7355957 6.9448853 -6.1102295 6.9448853l0 0c-3.3745728 0 -6.1102295 -3.1093445 -6.1102295 -6.9448853z" fill-rule="evenodd"/><path fill="#ffcb00" d="m774.86646 237.41125l0 0c0 -3.835556 2.7356567 -6.9448853 6.1102295 -6.9448853l0 0c1.6205444 0 3.1746826 0.73168945 4.3206177 2.0341187c1.145874 1.302414 1.7896118 3.0688782 1.7896118 4.9107666l0 0c0 3.835556 -2.7356567 6.9448853 -6.1102295 6.9448853l0 0c-3.3745728 0 -6.1102295 -3.1093292 -6.1102295 -6.9448853z" fill-rule="evenodd"/><path stroke="#ffcb00" stroke-width="16.0" stroke-linejoin="round" stroke-linecap="butt" d="m774.86646 237.41125l0 0c0 -3.835556 2.7356567 -6.9448853 6.1102295 -6.9448853l0 0c1.6205444 0 3.1746826 0.73168945 4.3206177 2.0341187c1.145874 1.302414 1.7896118 3.0688782 1.7896118 4.9107666l0 0c0 3.835556 -2.7356567 6.9448853 -6.1102295 6.9448853l0 0c-3.3745728 0 -6.1102295 -3.1093292 -6.1102295 -6.9448853z" fill-rule="evenodd"/><path fill="#000000" fill-opacity="0.0" d="m809.3028 430.3151l21.448792 -17.88977" fill-rule="evenodd"/><path stroke="#ffffff" stroke-width="8.0" stroke-linejoin="round" stroke-linecap="butt" d="m809.3028 430.3151l21.448792 -17.88977" fill-rule="evenodd"/><path fill="#000000" fill-opacity="0.0" d="m710.88513 699.5227l-53.322815 58.582703" fill-rule="evenodd"/><path stroke="#ffffff" stroke-width="8.0" stroke-linejoin="round" stroke-linecap="butt" d="m710.88513 699.5227l-53.322815 58.582703" fill-rule="evenodd"/><path fill="#000000" fill-opacity="0.0" d="m777.24005 487.52615l-209.63782 -63.275604" fill-rule="evenodd"/><path stroke="#ffffff" stroke-width="8.0" stroke-linejoin="round" stroke-linecap="butt" d="m777.24005 487.52615l-209.63782 -63.275604" fill-rule="evenodd"/><path fill="#000000" fill-opacity="0.0" d="m305.4541 72.695526l196.69293 40.692917" fill-rule="evenodd"/><path stroke="#ffffff" stroke-width="8.0" stroke-linejoin="round" stroke-linecap="butt" d="m305.4541 72.695526l196.69293 40.692917" fill-rule="evenodd"/><path fill="#ffcb00" d="m709.09546 694.61194l0 0c0 -3.8355713 2.7356567 -6.9448853 6.1102905 -6.9448853l0 0c1.6204834 0 3.1746826 0.73168945 4.3205566 2.0341187c1.145874 1.3024292 1.7896729 3.0688477 1.7896729 4.9107666l0 0c0 3.8355713 -2.7356567 6.9448853 -6.1102295 6.9448853l0 0c-3.3746338 0 -6.1102905 -3.109314 -6.1102905 -6.9448853z" fill-rule="evenodd"/><path stroke="#ffcb00" stroke-width="16.0" stroke-linejoin="round" stroke-linecap="butt" d="m709.09546 694.61194l0 0c0 -3.8355713 2.7356567 -6.9448853 6.1102905 -6.9448853l0 0c1.6204834 0 3.1746826 0.73168945 4.3205566 2.0341187c1.145874 1.3024292 1.7896729 3.0688477 1.7896729 4.9107666l0 0c0 3.8355713 -2.7356567 6.9448853 -6.1102295 6.9448853l0 0c-3.3746338 0 -6.1102905 -3.109314 -6.1102905 -6.9448853z" fill-rule="evenodd"/><path fill="#000000" fill-opacity="0.0" d="m809.3028 430.3151l-231.27557 -10.992126" fill-rule="evenodd"/><path stroke="#ffffff" stroke-width="8.0" stroke-linejoin="round" stroke-linecap="butt" d="m809.3028 430.3151l-231.27557 -10.992126" fill-rule="evenodd"/><path fill="#302681" d="m828.9504 407.519l0 0c0 -3.8355408 2.7356567 -6.9448853 6.1102295 -6.9448853l0 0c1.6205444 0 3.1747437 0.73168945 4.3206177 2.0341187c1.145874 1.3023987 1.7896729 3.0688782 1.7896729 4.9107666l0 0c0 3.8355408 -2.7356567 6.9448853 -6.1102905 6.9448853l0 0c-3.3745728 0 -6.1102295 -3.1093445 -6.1102295 -6.9448853z" fill-rule="evenodd"/><path stroke="#302681" stroke-width="16.0" stroke-linejoin="round" stroke-linecap="butt" d="m828.9504 407.519l0 0c0 -3.8355408 2.7356567 -6.9448853 6.1102295 -6.9448853l0 0c1.6205444 0 3.1747437 0.73168945 4.3206177 2.0341187c1.145874 1.3023987 1.7896729 3.0688782 1.7896729 4.9107666l0 0c0 3.8355408 -2.7356567 6.9448853 -6.1102905 6.9448853l0 0c-3.3745728 0 -6.1102295 -3.1093445 -6.1102295 -6.9448853z" fill-rule="evenodd"/><path fill="#009440" d="m471.79807 939.8967l0 0c0 -3.8355103 2.7356262 -6.9448853 6.1102295 -6.9448853l0 0c1.6205444 0 3.1746826 0.73168945 4.320587 2.0341187c1.145874 1.3024292 1.7896423 3.0689087 1.7896423 4.9107666l0 0c0 3.8355713 -2.7356567 6.9448853 -6.1102295 6.9448853l0 0c-3.3746033 0 -6.1102295 -3.109314 -6.1102295 -6.9448853z" fill-rule="evenodd"/><path stroke="#009440" stroke-width="16.0" stroke-linejoin="round" stroke-linecap="butt" d="m471.79807 939.8967l0 0c0 -3.8355103 2.7356262 -6.9448853 6.1102295 -6.9448853l0 0c1.6205444 0 3.1746826 0.73168945 4.320587 2.0341187c1.145874 1.3024292 1.7896423 3.0689087 1.7896423 4.9107666l0 0c0 3.8355713 -2.7356567 6.9448853 -6.1102295 6.9448853l0 0c-3.3746033 0 -6.1102295 -3.109314 -6.1102295 -6.9448853z" fill-rule="evenodd"/><path fill="#009440" d="m299.34387 65.75065l0 0c0 -3.8355522 2.7356567 -6.9448814 6.1102295 -6.9448814l0 0c1.6205444 0 3.1747131 0.73168945 4.320587 2.0341072c1.1459045 1.3024178 1.7896729 3.0688744 1.7896729 4.910774l0 0c0 3.8355484 -2.7356567 6.9448776 -6.11026 6.9448776l0 0c-3.3745728 0 -6.1102295 -3.1093292 -6.1102295 -6.9448776z" fill-rule="evenodd"/><path stroke="#009440" stroke-width="16.0" stroke-linejoin="round" stroke-linecap="butt" d="m299.34387 65.75065l0 0c0 -3.8355522 2.7356567 -6.9448814 6.1102295 -6.9448814l0 0c1.6205444 0 3.1747131 0.73168945 4.320587 2.0341072c1.1459045 1.3024178 1.7896729 3.0688744 1.7896729 4.910774l0 0c0 3.8355484 -2.7356567 6.9448776 -6.11026 6.9448776l0 0c-3.3745728 0 -6.1102295 -3.1093292 -6.1102295 -6.9448776z" fill-rule="evenodd"/><path fill="#000000" fill-opacity="0.0" d="m571.9126 412.3938l279.08667 -103.18109" fill-rule="evenodd"/><path stroke="#ffffff" stroke-width="8.0" stroke-linejoin="round" stroke-linecap="butt" d="m571.9126 412.3938l279.08667 -103.18109" fill-rule="evenodd"/><path fill="#009440" d="m384.3945 542.53186l0 0c0 -3.8355713 2.7356262 -6.9448853 6.1102295 -6.9448853l0 0c1.6205444 0 3.1746826 0.73168945 4.320587 2.0341187c1.1459045 1.3023682 1.7896423 3.0688477 1.7896423 4.9107666l0 0c0 3.8355103 -2.7356262 6.9448853 -6.1102295 6.9448853l0 0c-3.3746033 0 -6.1102295 -3.109375 -6.1102295 -6.9448853z" fill-rule="evenodd"/><path stroke="#009440" stroke-width="16.0" stroke-linejoin="round" stroke-linecap="butt" d="m384.3945 542.53186l0 0c0 -3.8355713 2.7356262 -6.9448853 6.1102295 -6.9448853l0 0c1.6205444 0 3.1746826 0.73168945 4.320587 2.0341187c1.1459045 1.3023682 1.7896423 3.0688477 1.7896423 4.9107666l0 0c0 3.8355103 -2.7356262 6.9448853 -6.1102295 6.9448853l0 0c-3.3746033 0 -6.1102295 -3.109375 -6.1102295 -6.9448853z" fill-rule="evenodd"/><path fill="#ffcb00" d="m530.0654 581.9893l0 0c0 -3.8355713 2.7356567 -6.9448853 6.1102295 -6.9448853l0 0c1.6205444 0 3.1747437 0.73168945 4.3206177 2.0341187c1.145874 1.3024292 1.7896729 3.0688477 1.7896729 4.9107666l0 0c0 3.8355713 -2.7356567 6.9448853 -6.1102905 6.9448853l0 0c-3.3745728 0 -6.1102295 -3.109314 -6.1102295 -6.9448853z" fill-rule="evenodd"/><path stroke="#ffcb00" stroke-width="16.0" stroke-linejoin="round" stroke-linecap="butt" d="m530.0654 581.9893l0 0c0 -3.8355713 2.7356567 -6.9448853 6.1102295 -6.9448853l0 0c1.6205444 0 3.1747437 0.73168945 4.3206177 2.0341187c1.145874 1.3024292 1.7896729 3.0688477 1.7896729 4.9107666l0 0c0 3.8355713 -2.7356567 6.9448853 -6.1102905 6.9448853l0 0c-3.3745728 0 -6.1102295 -3.109314 -6.1102295 -6.9448853z" fill-rule="evenodd"/><path fill="#302681" d="m225.46771 348.34537l0 0c0 -3.8355408 2.7356567 -6.9448853 6.1102448 -6.9448853l0 0c1.6205292 0 3.1746979 0.73168945 4.320587 2.0341187c1.1458893 1.3023987 1.7896423 3.0688782 1.7896423 4.9107666l0 0c0 3.8355408 -2.7356415 6.9448853 -6.1102295 6.9448853l0 0c-3.374588 0 -6.1102448 -3.1093445 -6.1102448 -6.9448853z" fill-rule="evenodd"/><path stroke="#302681" stroke-width="16.0" stroke-linejoin="round" stroke-linecap="butt" d="m225.46771 348.34537l0 0c0 -3.8355408 2.7356567 -6.9448853 6.1102448 -6.9448853l0 0c1.6205292 0 3.1746979 0.73168945 4.320587 2.0341187c1.1458893 1.3023987 1.7896423 3.0688782 1.7896423 4.9107666l0 0c0 3.8355408 -2.7356415 6.9448853 -6.1102295 6.9448853l0 0c-3.374588 0 -6.1102448 -3.1093445 -6.1102448 -6.9448853z" fill-rule="evenodd"/><path fill="#000000" fill-opacity="0.0" d="m537.59436 887.4049l-113.79529 -185.85828" fill-rule="evenodd"/><path stroke="#ffffff" stroke-width="8.0" stroke-linejoin="round" stroke-linecap="butt" d="m537.59436 887.4049l-113.79529 -185.85828" fill-rule="evenodd"/><path fill="#302681" d="m558.25934 556.39154l0 0c0 -3.8355713 2.7356567 -6.9448853 6.1102295 -6.9448853l0 0c1.6205444 0 3.1747437 0.73168945 4.3206177 2.0341187c1.145874 1.3024292 1.7896118 3.0688477 1.7896118 4.9107666l0 0c0 3.8355713 -2.7355957 6.9448853 -6.1102295 6.9448853l0 0c-3.3745728 0 -6.1102295 -3.109314 -6.1102295 -6.9448853z" fill-rule="evenodd"/><path stroke="#302681" stroke-width="16.0" stroke-linejoin="round" stroke-linecap="butt" d="m558.25934 556.39154l0 0c0 -3.8355713 2.7356567 -6.9448853 6.1102295 -6.9448853l0 0c1.6205444 0 3.1747437 0.73168945 4.3206177 2.0341187c1.145874 1.3024292 1.7896118 3.0688477 1.7896118 4.9107666l0 0c0 3.8355713 -2.7355957 6.9448853 -6.1102295 6.9448853l0 0c-3.3745728 0 -6.1102295 -3.109314 -6.1102295 -6.9448853z" fill-rule="evenodd"/><path fill="#ffcb00" d="m798.87195 435.22586l0 0c0 -3.8355408 2.7356567 -6.9448853 6.1102295 -6.9448853l0 0c1.6205444 0 3.1747437 0.73168945 4.3206177 2.0341187c1.145874 1.3023987 1.7896729 3.0688782 1.7896729 4.9107666l0 0c0 3.8355408 -2.7356567 6.9448853 -6.1102905 6.9448853l0 0c-3.3745728 0 -6.1102295 -3.1093445 -6.1102295 -6.9448853z" fill-rule="evenodd"/><path stroke="#ffcb00" stroke-width="16.0" stroke-linejoin="round" stroke-linecap="butt" d="m798.87195 435.22586l0 0c0 -3.8355408 2.7356567 -6.9448853 6.1102295 -6.9448853l0 0c1.6205444 0 3.1747437 0.73168945 4.3206177 2.0341187c1.145874 1.3023987 1.7896729 3.0688782 1.7896729 4.9107666l0 0c0 3.8355408 -2.7356567 6.9448853 -6.1102905 6.9448853l0 0c-3.3745728 0 -6.1102295 -3.1093445 -6.1102295 -6.9448853z" fill-rule="evenodd"/><path fill="#009440" d="m765.01953 487.52615l0 0c0 -3.8355408 2.7356567 -6.9448853 6.1102905 -6.9448853l0 0c1.6204834 0 3.1746826 0.73168945 4.3205566 2.0341187c1.145874 1.3023987 1.7896729 3.0688782 1.7896729 4.9107666l0 0c0 3.8355408 -2.7356567 6.9448853 -6.1102295 6.9448853l0 0c-3.3746338 0 -6.1102905 -3.1093445 -6.1102905 -6.9448853z" fill-rule="evenodd"/><path stroke="#009440" stroke-width="16.0" stroke-linejoin="round" stroke-linecap="butt" d="m765.01953 487.52615l0 0c0 -3.8355408 2.7356567 -6.9448853 6.1102905 -6.9448853l0 0c1.6204834 0 3.1746826 0.73168945 4.3205566 2.0341187c1.145874 1.3023987 1.7896729 3.0688782 1.7896729 4.9107666l0 0c0 3.8355408 -2.7356567 6.9448853 -6.1102295 6.9448853l0 0c-3.3746338 0 -6.1102905 -3.1093445 -6.1102905 -6.9448853z" fill-rule="evenodd"/><path fill="#000000" fill-opacity="0.0" d="m588.3732 769.02057l-160.25195 -65.44879" fill-rule="evenodd"/><path stroke="#ffffff" stroke-width="8.0" stroke-linejoin="round" stroke-linecap="butt" d="m588.3732 769.02057l-160.25195 -65.44879" fill-rule="evenodd"/><path fill="#000000" fill-opacity="0.0" d="m502.16147 113.37282l63.653534 39.338577" fill-rule="evenodd"/><path stroke="#ffffff" stroke-width="8.0" stroke-linejoin="round" stroke-linecap="butt" d="m502.16147 113.37282l63.653534 39.338577" fill-rule="evenodd"/><path fill="#302681" d="m565.80237 152.70262l0 0c0 -3.835556 2.7356567 -6.9448853 6.1102295 -6.9448853l0 0c1.6205444 0 3.1747437 0.73168945 4.3206177 2.0341034c1.145874 1.302414 1.7896729 3.0688782 1.7896729 4.910782l0 0c0 3.8355408 -2.7356567 6.94487 -6.1102905 6.94487l0 0c-3.3745728 0 -6.1102295 -3.1093292 -6.1102295 -6.94487z" fill-rule="evenodd"/><path stroke="#302681" stroke-width="16.0" stroke-linejoin="round" stroke-linecap="butt" d="m565.80237 152.70262l0 0c0 -3.835556 2.7356567 -6.9448853 6.1102295 -6.9448853l0 0c1.6205444 0 3.1747437 0.73168945 4.3206177 2.0341034c1.145874 1.302414 1.7896729 3.0688782 1.7896729 4.910782l0 0c0 3.8355408 -2.7356567 6.94487 -6.1102905 6.94487l0 0c-3.3745728 0 -6.1102295 -3.1093292 -6.1102295 -6.94487z" fill-rule="evenodd"/><path fill="#000000" fill-opacity="0.0" d="m571.6103 412.9004l-69.44882 -299.5276" fill-rule="evenodd"/><path stroke="#ffffff" stroke-width="8.0" stroke-linejoin="round" stroke-linecap="butt" d="m571.6103 412.9004l-69.44882 -299.5276" fill-rule="evenodd"/><path fill="#009440" d="m844.8998 369.1412l0 0c0 -3.8355713 2.7356567 -6.9448853 6.1102905 -6.9448853l0 0c1.6204834 0 3.1746826 0.73168945 4.3205566 2.0341187c1.145874 1.3023987 1.7896729 3.0688477 1.7896729 4.9107666l0 0c0 3.8355408 -2.7356567 6.9448853 -6.1102295 6.9448853l0 0c-3.3746338 0 -6.1102905 -3.1093445 -6.1102905 -6.9448853z" fill-rule="evenodd"/><path stroke="#009440" stroke-width="16.0" stroke-linejoin="round" stroke-linecap="butt" d="m844.8998 369.1412l0 0c0 -3.8355713 2.7356567 -6.9448853 6.1102905 -6.9448853l0 0c1.6204834 0 3.1746826 0.73168945 4.3205566 2.0341187c1.145874 1.3023987 1.7896729 3.0688477 1.7896729 4.9107666l0 0c0 3.8355408 -2.7356567 6.9448853 -6.1102295 6.9448853l0 0c-3.3746338 0 -6.1102905 -3.1093445 -6.1102905 -6.9448853z" fill-rule="evenodd"/><path fill="#000000" fill-opacity="0.0" d="m647.14667 763.00867l-60.69287 11.2126465" fill-rule="evenodd"/><path stroke="#ffffff" stroke-width="8.0" stroke-linejoin="round" stroke-linecap="butt" d="m647.14667 763.00867l-60.69287 11.2126465" fill-rule="evenodd"/><path fill="#ffcb00" d="m645.35706 758.0979l0 0c0 -3.8355103 2.7356567 -6.9448853 6.1102295 -6.9448853l0 0c1.6205444 0 3.1746826 0.73168945 4.3205566 2.0341187c1.145935 1.3024292 1.7896729 3.0689087 1.7896729 4.9107666l0 0c0 3.8355713 -2.7356567 6.9448853 -6.1102295 6.9448853l0 0c-3.3745728 0 -6.1102295 -3.109314 -6.1102295 -6.9448853z" fill-rule="evenodd"/><path stroke="#ffcb00" stroke-width="16.0" stroke-linejoin="round" stroke-linecap="butt" d="m645.35706 758.0979l0 0c0 -3.8355103 2.7356567 -6.9448853 6.1102295 -6.9448853l0 0c1.6205444 0 3.1746826 0.73168945 4.3205566 2.0341187c1.145935 1.3024292 1.7896729 3.0689087 1.7896729 4.9107666l0 0c0 3.8355713 -2.7356567 6.9448853 -6.1102295 6.9448853l0 0c-3.3745728 0 -6.1102295 -3.109314 -6.1102295 -6.9448853z" fill-rule="evenodd"/><path fill="#000000" fill-opacity="0.0" d="m576.028 779.1218l-40.22046 103.37012" fill-rule="evenodd"/><path stroke="#ffffff" stroke-width="8.0" stroke-linejoin="round" stroke-linecap="butt" d="m576.028 779.1218l-40.22046 103.37012" fill-rule="evenodd"/><path fill="#000000" fill-opacity="0.0" d="m578.0229 419.33868l-259.3071 -215.46457" fill-rule="evenodd"/><path stroke="#ffffff" stroke-width="8.0" stroke-linejoin="round" stroke-linecap="butt" d="m578.0229 419.33868l-259.3071 -215.46457" fill-rule="evenodd"/><path fill="#ffcb00" d="m525.37384 887.4049l0 0c0 -3.8355713 2.7356567 -6.9448853 6.1102295 -6.9448853l0 0c1.6205444 0 3.1747437 0.73168945 4.3206177 2.0341187c1.145874 1.3024292 1.7896729 3.0689087 1.7896729 4.9107666l0 0c0 3.8355713 -2.7356567 6.9448853 -6.1102905 6.9448853l0 0c-3.3745728 0 -6.1102295 -3.109314 -6.1102295 -6.9448853z" fill-rule="evenodd"/><path stroke="#ffcb00" stroke-width="16.0" stroke-linejoin="round" stroke-linecap="butt" d="m525.37384 887.4049l0 0c0 -3.8355713 2.7356567 -6.9448853 6.1102295 -6.9448853l0 0c1.6205444 0 3.1747437 0.73168945 4.3206177 2.0341187c1.145874 1.3024292 1.7896729 3.0689087 1.7896729 4.9107666l0 0c0 3.8355713 -2.7356567 6.9448853 -6.1102905 6.9448853l0 0c-3.3745728 0 -6.1102295 -3.109314 -6.1102295 -6.9448853z" fill-rule="evenodd"/><path fill="#009440" d="m574.23834 774.21106l0 0c0 -3.8355103 2.7356567 -6.9448853 6.1102295 -6.9448853l0 0c1.6205444 0 3.1747437 0.73168945 4.3206177 2.0341187c1.145874 1.3024292 1.7896118 3.0689087 1.7896118 4.9107666l0 0c0 3.8355713 -2.7355957 6.9448853 -6.1102295 6.9448853l0 0c-3.3745728 0 -6.1102295 -3.109314 -6.1102295 -6.9448853z" fill-rule="evenodd"/><path stroke="#009440" stroke-width="16.0" stroke-linejoin="round" stroke-linecap="butt" d="m574.23834 774.21106l0 0c0 -3.8355103 2.7356567 -6.9448853 6.1102295 -6.9448853l0 0c1.6205444 0 3.1747437 0.73168945 4.3206177 2.0341187c1.145874 1.3024292 1.7896118 3.0689087 1.7896118 4.9107666l0 0c0 3.8355713 -2.7355957 6.9448853 -6.1102295 6.9448853l0 0c-3.3745728 0 -6.1102295 -3.109314 -6.1102295 -6.9448853z" fill-rule="evenodd"/><path fill="#ffcb00" d="m422.01102 696.6269l0 0c0 -3.8355713 2.7356567 -6.9448853 6.11026 -6.9448853l0 0c1.6205139 0 3.1746826 0.73168945 4.320587 2.0341187c1.145874 1.3023682 1.7896423 3.0688477 1.7896423 4.9107666l0 0c0 3.8355103 -2.7356567 6.9448853 -6.1102295 6.9448853l0 0c-3.3746033 0 -6.11026 -3.109375 -6.11026 -6.9448853z" fill-rule="evenodd"/><path stroke="#ffcb00" stroke-width="16.0" stroke-linejoin="round" stroke-linecap="butt" d="m422.01102 696.6269l0 0c0 -3.8355713 2.7356567 -6.9448853 6.11026 -6.9448853l0 0c1.6205139 0 3.1746826 0.73168945 4.320587 2.0341187c1.145874 1.3023682 1.7896423 3.0688477 1.7896423 4.9107666l0 0c0 3.8355103 -2.7356567 6.9448853 -6.1102295 6.9448853l0 0c-3.3746033 0 -6.11026 -3.109375 -6.11026 -6.9448853z" fill-rule="evenodd"/><path fill="#ffcb00" d="m844.8998 335.70654l0 0c0 -3.8355408 2.7356567 -6.9448853 6.1102905 -6.9448853l0 0c1.6204834 0 3.1746826 0.73168945 4.3205566 2.0341187c1.145874 1.3024292 1.7896729 3.0688782 1.7896729 4.9107666l0 0c0 3.8355713 -2.7356567 6.9448853 -6.1102295 6.9448853l0 0c-3.3746338 0 -6.1102905 -3.109314 -6.1102905 -6.9448853z" fill-rule="evenodd"/><path stroke="#ffcb00" stroke-width="16.0" stroke-linejoin="round" stroke-linecap="butt" d="m844.8998 335.70654l0 0c0 -3.8355408 2.7356567 -6.9448853 6.1102905 -6.9448853l0 0c1.6204834 0 3.1746826 0.73168945 4.3205566 2.0341187c1.145874 1.3024292 1.7896729 3.0688782 1.7896729 4.9107666l0 0c0 3.8355713 -2.7356567 6.9448853 -6.1102295 6.9448853l0 0c-3.3746338 0 -6.1102905 -3.109314 -6.1102905 -6.9448853z" fill-rule="evenodd"/><path fill="#302681" d="m844.8998 302.2719l0 0c0 -3.8355713 2.7356567 -6.9448853 6.1102905 -6.9448853l0 0c1.6204834 0 3.1746826 0.73168945 4.3205566 2.0340881c1.145874 1.3024292 1.7896729 3.0688782 1.7896729 4.910797l0 0c0 3.8355408 -2.7356567 6.9448853 -6.1102295 6.9448853l0 0c-3.3746338 0 -6.1102905 -3.1093445 -6.1102905 -6.9448853z" fill-rule="evenodd"/><path stroke="#302681" stroke-width="16.0" stroke-linejoin="round" stroke-linecap="butt" d="m844.8998 302.2719l0 0c0 -3.8355713 2.7356567 -6.9448853 6.1102905 -6.9448853l0 0c1.6204834 0 3.1746826 0.73168945 4.3205566 2.0340881c1.145874 1.3024292 1.7896729 3.0688782 1.7896729 4.910797l0 0c0 3.8355408 -2.7356567 6.9448853 -6.1102295 6.9448853l0 0c-3.3746338 0 -6.1102905 -3.1093445 -6.1102905 -6.9448853z" fill-rule="evenodd"/><path fill="#009440" d="m565.80237 419.33868l0 0c0 -3.8355713 2.7356567 -6.9448853 6.1102295 -6.9448853l0 0c1.6205444 0 3.1747437 0.73168945 4.3206177 2.0341187c1.145874 1.3023987 1.7896729 3.0688477 1.7896729 4.9107666l0 0c0 3.8355408 -2.7356567 6.9448853 -6.1102905 6.9448853l0 0c-3.3745728 0 -6.1102295 -3.1093445 -6.1102295 -6.9448853z" fill-rule="evenodd"/><path stroke="#009440" stroke-width="16.0" stroke-linejoin="round" stroke-linecap="butt" d="m565.80237 419.33868l0 0c0 -3.8355713 2.7356567 -6.9448853 6.1102295 -6.9448853l0 0c1.6205444 0 3.1747437 0.73168945 4.3206177 2.0341187c1.145874 1.3023987 1.7896729 3.0688477 1.7896729 4.9107666l0 0c0 3.8355408 -2.7356567 6.9448853 -6.1102905 6.9448853l0 0c-3.3745728 0 -6.1102295 -3.1093445 -6.1102295 -6.9448853z" fill-rule="evenodd"/><path fill="#ffcb00" d="m305.3973 194.5579l0 0c0 -3.8355408 2.7356262 -6.94487 6.1102295 -6.94487l0 0c1.6205444 0 3.1747131 0.73168945 4.320587 2.0341034c1.1459045 1.302414 1.7896423 3.0688782 1.7896423 4.9107666l0 0c0 3.835556 -2.7356262 6.9448853 -6.1102295 6.9448853l0 0c-3.3746033 0 -6.1102295 -3.1093292 -6.1102295 -6.9448853z" fill-rule="evenodd"/><path stroke="#ffcb00" stroke-width="16.0" stroke-linejoin="round" stroke-linecap="butt" d="m305.3973 194.5579l0 0c0 -3.8355408 2.7356262 -6.94487 6.1102295 -6.94487l0 0c1.6205444 0 3.1747131 0.73168945 4.320587 2.0341034c1.1459045 1.302414 1.7896423 3.0688782 1.7896423 4.9107666l0 0c0 3.835556 -2.7356262 6.9448853 -6.1102295 6.9448853l0 0c-3.3746033 0 -6.1102295 -3.1093292 -6.1102295 -6.9448853z" fill-rule="evenodd"/><path fill="#009440" d="m500.37183 108.46204l0 0c0 -3.8355484 2.7356262 -6.9448776 6.1102295 -6.9448776l0 0c1.6205444 0 3.1746826 0.73168945 4.320587 2.0341034c1.1459045 1.3024216 1.7896423 3.0688782 1.7896423 4.910774l0 0c0 3.835556 -2.7356262 6.9448853 -6.1102295 6.9448853l0 0c-3.3746033 0 -6.1102295 -3.1093292 -6.1102295 -6.9448853z" fill-rule="evenodd"/><path stroke="#009440" stroke-width="16.0" stroke-linejoin="round" stroke-linecap="butt" d="m500.37183 108.46204l0 0c0 -3.8355484 2.7356262 -6.9448776 6.1102295 -6.9448776l0 0c1.6205444 0 3.1746826 0.73168945 4.320587 2.0341034c1.1459045 1.3024216 1.7896423 3.0688782 1.7896423 4.910774l0 0c0 3.835556 -2.7356262 6.9448853 -6.1102295 6.9448853l0 0c-3.3746033 0 -6.1102295 -3.1093292 -6.1102295 -6.9448853z" fill-rule="evenodd"/><path fill="#000000" fill-opacity="0.0" d="m305.4541 72.695526c0 0.0157547 0.01574707 0.023628235 0.03149414 0.03150177c0.015777588 0.007873535 0.03152466 0.01574707 0.03152466 0.03149414" fill-rule="evenodd"/><path stroke="#000000" stroke-width="1.0" stroke-linejoin="round" stroke-linecap="butt" d="m305.4541 72.695526c0 0.0157547 0.01574707 0.023628235 0.03149414 0.03150177c0.015777588 0.007873535 0.03152466 0.01574707 0.03152466 0.03149414" fill-rule="evenodd"/></g></svg>