<?xml version="1.0" encoding="UTF-8" standalone="no"?>
<svg xmlns:svg="http://www.w3.org/2000/svg" xmlns="http://www.w3.org/2000/svg" version="1.0" width="495" height="495" viewBox="-164.5 -164.5 495 495"  xml:space="preserve">
<path d="M 84,-74.191 C 126.635,-0.334 175.152,69.961 229.08,136.02 M 156.121,-56.398 C 159.551,28.811 169.844,113.606 186.898,197.161 M 211.709,-7.141 C 175.154,69.896 144.865,149.757 121.141,231.66 M 238.051,62.309 C 169.873,113.531 105.938,170.164 46.859,231.66 M 229.08,136.02 C 144.91,149.705 61.984,170.15 -18.898,197.16 M 186.898,197.16 C 106.016,170.15 23.09,149.705 -61.078,136.02 M 121.141,231.66 C 62.062,170.164 -1.875,113.531 -70.049,62.309 M 46.859,231.66 C 23.133,149.758 -7.154,69.896 -43.711,-7.141 M -18.898,197.16 C -1.846,113.605 8.449,28.811 11.879,-56.398 M -61.078,136.02 C -7.152,69.961 41.367,-0.336 84,-74.191 M -70.049,62.309 C 8.408,28.881 84.043,-10.816 156.121,-56.398 M -43.711,-7.141 C 41.291,-0.278 126.709,-0.278 211.709,-7.141 M 11.879,-56.398 C 83.959,-10.816 159.594,28.881 238.051,62.309 M 156.121,-56.398 C 133.875,-68.08 109.125,-74.186 84,-74.191 M 211.709,-7.141 C 197.441,-27.817 178.363,-44.723 156.121,-56.399 M 238.051,62.309 C 235.022,37.371 225.983,13.536 211.709,-7.14 M 229.08,136.02 C 237.99,112.54 241.07,87.243 238.051,62.309 M 186.898,197.16 C 205.703,180.496 220.175,159.514 229.08,136.019 M 121.141,231.66 C 145.53,225.652 168.096,213.812 186.899,197.16 M 46.859,231.66 C 71.255,237.672 96.746,237.672 121.14,231.66 M -18.898,197.16 C -0.093,213.812 22.471,225.652 46.86,231.66 M -61.078,136.02 C -52.178,159.514 -37.703,180.497 -18.898,197.161 M -70.049,62.309 C -73.07,87.243 -69.99,112.539 -61.078,136.02 M -43.711,-7.141 C -57.984,13.535 -67.02,37.371 -70.049,62.309 M 11.879,-56.398 C -10.365,-44.722 -29.441,-27.816 -43.711,-7.14 M 84,-74.191 C 58.875,-74.185 34.125,-68.08 11.879,-56.398 M 84,-74.191 C 113.02,-124.418 177.26,-141.609 227.486,-112.587 C 277.711,-83.569 294.904,-19.329 265.882,30.897 C 258.814,43.133 249.347,53.819 238.05,62.309 M 156.121,-56.398 C 205.129,-87.429 270.014,-72.855 301.045,-23.847 C 332.074,25.16 317.5,90.045 268.492,121.076 C 256.498,128.668 243.092,133.754 229.08,136.019 M 211.709,-7.141 C 269.527,-11.825 320.195,31.246 324.881,89.062 C 329.567,146.878 286.496,197.546 228.678,202.234 C 214.553,203.379 200.34,201.652 186.899,197.16 M 238.051,62.309 C 291.43,85.012 316.297,146.688 293.598,200.069 C 270.895,253.448 209.219,278.317 155.84,255.614 C 142.774,250.059 130.969,241.909 121.141,231.661 M 229.08,136.02 C 265.789,180.934 259.139,247.102 214.225,283.811 C 169.311,320.52 103.145,313.868 66.434,268.954 C 57.457,257.974 50.801,245.286 46.86,231.661 M 186.898,197.16 C 198.523,253.99 161.875,309.482 105.044,321.105 C 48.217,332.727 -7.277,296.08 -18.898,239.25 C -21.738,225.363 -21.738,211.047 -18.898,197.16 M 121.141,231.66 C 105.028,287.385 46.793,319.496 -8.929,303.385 C -64.651,287.274 -96.767,229.039 -80.654,173.315 C -76.716,159.688 -70.054,147.004 -61.078,136.02 M 46.859,231.66 C 6.709,273.525 -59.778,274.916 -101.643,234.765 C -143.508,194.617 -144.899,128.128 -104.748,86.265 C -94.922,76.015 -83.115,67.869 -70.049,62.308 M -18.898,197.16 C -73.916,215.547 -133.418,185.855 -151.808,130.842 C -170.197,75.826 -140.501,16.321 -85.488,-2.068 C -72.047,-6.558 -57.838,-8.285 -43.711,-7.14 M -61.078,136.02 C -118.342,126.756 -157.254,72.827 -147.988,15.563 C -138.722,-41.699 -84.793,-80.607 -27.533,-71.343 C -13.517,-69.075 -0.111,-63.991 11.879,-56.398 M -70.049,62.309 C -116.42,27.457 -125.754,-38.384 -90.899,-84.755 C -56.045,-131.12 9.796,-140.454 56.163,-105.603 C 67.461,-97.113 76.928,-86.426 84,-74.191 M -43.711,-7.141 C -68.584,-59.543 -46.262,-122.188 6.141,-147.059 C 58.543,-171.932 121.188,-149.614 146.059,-97.211 C 152.129,-84.422 155.551,-70.541 156.121,-56.399 M 11.879,-56.398 C 14.215,-114.357 63.09,-159.451 121.051,-157.119 C 179.01,-154.787 224.104,-105.908 221.77,-47.949 C 221.2,-33.808 217.778,-19.928 211.709,-7.14"  style="fill:none;stroke:black;stroke-width:2" />
<g style="fill:blue;stroke:black;stroke-width:2">
<circle cx="229.08" cy="136.02" r="15"/>
<circle cx="186.89799" cy="197.16" r="15"/>
<circle cx="121.141" cy="231.66" r="15"/>
<circle cx="46.859001" cy="231.66" r="15"/>
<circle cx="-43.710999" cy="-7.1409998" r="15"/>
<circle cx="46.859001" cy="231.66" r="15" transform="translate(-65.757001,-34.500004)"/>
<circle cx="46.859001" cy="231.66" r="15" transform="translate(-107.937,-95.640004)"/>
<circle cx="46.859001" cy="231.66" r="15" transform="translate(-116.908,-169.351)"/>
<circle cx="46.859001" cy="231.66" r="15" transform="translate(-34.980001,-288.058)"/>
<circle cx="46.859001" cy="231.66" r="15" transform="translate(37.140999,-305.851)"/>
<circle cx="46.859001" cy="231.66" r="15" transform="translate(109.262,-288.058)"/>
<circle cx="46.859001" cy="231.66" r="15" transform="translate(164.85,-238.801)"/>
<circle cx="46.859001" cy="231.66" r="15" transform="translate(191.192,-169.351)"/>
</g></svg>