<svg xmlns="http://www.w3.org/2000/svg" width="468" height="441">
<path style="stroke-width:5,stroke:#66f" d="M 3830.703125 1891.171875 L 3749.453125 2022.96875 " transform="matrix(0.1,0,0,-0.1,0,242)"/>
<path style="stroke-width:5,stroke:#66f" d="M 3830.703125 1891.171875 L 3626.09375 2116.015625 " transform="matrix(0.1,0,0,-0.1,0,242)"/>
<path style="stroke-width:5,stroke:#66f" d="M 3830.703125 1891.171875 L 3322.890625 2144.257812 " transform="matrix(0.1,0,0,-0.1,0,242)"/>
<g clip-path="url(#clip22)" clip-rule="nonzero">
<path style="stroke-width:5,stroke:#66f" d="M 3830.703125 1891.171875 L 3024.375 1661.71875 " transform="matrix(0.1,0,0,-0.1,0,242)"/>
</g>
<path style="stroke-width:5,stroke:#66f" d="M 3830.703125 1891.171875 L 3080.390625 1517.695312 " transform="matrix(0.1,0,0,-0.1,0,242)"/>
<path style="stroke-width:5,stroke:#66f" d="M 3830.703125 1891.171875 L 3626.09375 1362.34375 " transform="matrix(0.1,0,0,-0.1,0,242)"/>
<path style="stroke-width:5,stroke:#66f" d="M 3830.703125 1891.171875 L 3830.703125 1587.1875 " transform="matrix(0.1,0,0,-0.1,0,242)"/>
<path style="stroke-width:5,stroke:#66f" d="M 3830.703125 1891.171875 L 3859.335938 1739.179688 " transform="matrix(0.1,0,0,-0.1,0,242)"/>
<path style="stroke-width:5,stroke:#66f" d="M 3749.453125 2022.96875 L 3626.09375 2116.015625 " transform="matrix(0.1,0,0,-0.1,0,242)"/>
<path style="stroke-width:5,stroke:#66f" d="M 3749.453125 2022.96875 L 3477.03125 2158.554688 " transform="matrix(0.1,0,0,-0.1,0,242)"/>
<path style="stroke-width:5,stroke:#66f" d="M 3749.453125 2022.96875 L 3184.375 2075.195312 " transform="matrix(0.1,0,0,-0.1,0,242)"/>
<path style="stroke-width:5,stroke:#66f" d="M 3749.453125 2022.96875 L 3080.390625 1517.695312 " transform="matrix(0.1,0,0,-0.1,0,242)"/>
<path style="stroke-width:5,stroke:#66f" d="M 3749.453125 2022.96875 L 3184.375 1403.164062 " transform="matrix(0.1,0,0,-0.1,0,242)"/>
<path style="stroke-width:5,stroke:#66f" d="M 3749.453125 2022.96875 L 3749.453125 1455.390625 " transform="matrix(0.1,0,0,-0.1,0,242)"/>
<path style="stroke-width:5,stroke:#66f" d="M 3749.453125 2022.96875 L 3859.335938 1739.179688 " transform="matrix(0.1,0,0,-0.1,0,242)"/>
<path style="stroke-width:5,stroke:#66f" d="M 3626.09375 2116.015625 L 3477.03125 2158.554688 " transform="matrix(0.1,0,0,-0.1,0,242)"/>
<path style="stroke-width:5,stroke:#66f" d="M 3626.09375 2116.015625 L 3322.890625 2144.257812 " transform="matrix(0.1,0,0,-0.1,0,242)"/>
<path style="stroke-width:5,stroke:#66f" d="M 3626.09375 2116.015625 L 3080.390625 1960.664062 " transform="matrix(0.1,0,0,-0.1,0,242)"/>
<path style="stroke-width:5,stroke:#66f" d="M 3626.09375 2116.015625 L 3184.375 1403.164062 " transform="matrix(0.1,0,0,-0.1,0,242)"/>
<path style="stroke-width:5,stroke:#66f" d="M 3626.09375 2116.015625 L 3322.890625 1334.101562 " transform="matrix(0.1,0,0,-0.1,0,242)"/>
<path style="stroke-width:5,stroke:#66f" d="M 3626.09375 2116.015625 L 3830.703125 1587.1875 " transform="matrix(0.1,0,0,-0.1,0,242)"/>
<path style="stroke-width:5,stroke:#66f" d="M 3477.03125 2158.554688 L 3322.890625 2144.257812 " transform="matrix(0.1,0,0,-0.1,0,242)"/>
<path style="stroke-width:5,stroke:#66f" d="M 3477.03125 2158.554688 L 3184.375 2075.195312 " transform="matrix(0.1,0,0,-0.1,0,242)"/>
<g clip-path="url(#clip23)" clip-rule="nonzero">
<path style="stroke-width:5,stroke:#66f" d="M 3477.03125 2158.554688 L 3024.375 1816.640625 " transform="matrix(0.1,0,0,-0.1,0,242)"/>
</g>
<path style="stroke-width:5,stroke:#66f" d="M 3477.03125 2158.554688 L 3322.890625 1334.101562 " transform="matrix(0.1,0,0,-0.1,0,242)"/>
<path style="stroke-width:5,stroke:#66f" d="M 3477.03125 2158.554688 L 3477.03125 1319.804688 " transform="matrix(0.1,0,0,-0.1,0,242)"/>
<path style="stroke-width:5,stroke:#66f" d="M 3477.03125 2158.554688 L 3859.335938 1739.179688 " transform="matrix(0.1,0,0,-0.1,0,242)"/>
<path style="stroke-width:5,stroke:#66f" d="M 3322.890625 2144.257812 L 3184.375 2075.195312 " transform="matrix(0.1,0,0,-0.1,0,242)"/>
<path style="stroke-width:5,stroke:#66f" d="M 3322.890625 2144.257812 L 3080.390625 1960.664062 " transform="matrix(0.1,0,0,-0.1,0,242)"/>
<g clip-path="url(#clip24)" clip-rule="nonzero">
<path style="stroke-width:5,stroke:#66f" d="M 3322.890625 2144.257812 L 3024.375 1661.71875 " transform="matrix(0.1,0,0,-0.1,0,242)"/>
</g>
<path style="stroke-width:5,stroke:#66f" d="M 3322.890625 2144.257812 L 3477.03125 1319.804688 " transform="matrix(0.1,0,0,-0.1,0,242)"/>
<path style="stroke-width:5,stroke:#66f" d="M 3322.890625 2144.257812 L 3626.09375 1362.34375 " transform="matrix(0.1,0,0,-0.1,0,242)"/>
<path style="stroke-width:5,stroke:#66f" d="M 3184.375 2075.195312 L 3080.390625 1960.664062 " transform="matrix(0.1,0,0,-0.1,0,242)"/>
<g clip-path="url(#clip25)" clip-rule="nonzero">
<path style="stroke-width:5,stroke:#66f" d="M 3184.375 2075.195312 L 3024.375 1816.640625 " transform="matrix(0.1,0,0,-0.1,0,242)"/>
</g>
<path style="stroke-width:5,stroke:#66f" d="M 3184.375 2075.195312 L 3080.390625 1517.695312 " transform="matrix(0.1,0,0,-0.1,0,242)"/>
<path style="stroke-width:5,stroke:#66f" d="M 3184.375 2075.195312 L 3626.09375 1362.34375 " transform="matrix(0.1,0,0,-0.1,0,242)"/>
<path style="stroke-width:5,stroke:#66f" d="M 3184.375 2075.195312 L 3749.453125 1455.390625 " transform="matrix(0.1,0,0,-0.1,0,242)"/>
<g clip-path="url(#clip26)" clip-rule="nonzero">
<path style="stroke-width:5,stroke:#66f" d="M 3080.390625 1960.664062 L 3024.375 1816.640625 " transform="matrix(0.1,0,0,-0.1,0,242)"/>
</g>
<g clip-path="url(#clip27)" clip-rule="nonzero">
<path style="stroke-width:5,stroke:#66f" d="M 3080.390625 1960.664062 L 3024.375 1661.71875 " transform="matrix(0.1,0,0,-0.1,0,242)"/>
</g>
<path style="stroke-width:5,stroke:#66f" d="M 3080.390625 1960.664062 L 3184.375 1403.164062 " transform="matrix(0.1,0,0,-0.1,0,242)"/>
<path style="stroke-width:5,stroke:#66f" d="M 3080.390625 1960.664062 L 3749.453125 1455.390625 " transform="matrix(0.1,0,0,-0.1,0,242)"/>
<path style="stroke-width:5,stroke:#66f" d="M 3080.390625 1960.664062 L 3830.703125 1587.1875 " transform="matrix(0.1,0,0,-0.1,0,242)"/>
<path style="stroke-width:5,stroke:#66f" d="M 3024.375 1816.640625 L 3024.375 1661.71875 " transform="matrix(0.1,0,0,-0.1,0,242)"/>
<g clip-path="url(#clip28)" clip-rule="nonzero">
<path style="stroke-width:5,stroke:#66f" d="M 3024.375 1816.640625 L 3080.390625 1517.695312 " transform="matrix(0.1,0,0,-0.1,0,242)"/>
</g>
<g clip-path="url(#clip29)" clip-rule="nonzero">
<path style="stroke-width:5,stroke:#66f" d="M 3024.375 1816.640625 L 3322.890625 1334.101562 " transform="matrix(0.1,0,0,-0.1,0,242)"/>
</g>
<g clip-path="url(#clip30)" clip-rule="nonzero">
<path style="stroke-width:5,stroke:#66f" d="M 3024.375 1816.640625 L 3830.703125 1587.1875 " transform="matrix(0.1,0,0,-0.1,0,242)"/>
</g>
<g clip-path="url(#clip31)" clip-rule="nonzero">
<path style="stroke-width:5,stroke:#66f" d="M 3024.375 1816.640625 L 3859.335938 1739.179688 " transform="matrix(0.1,0,0,-0.1,0,242)"/>
</g>
<g clip-path="url(#clip32)" clip-rule="nonzero">
<path style="stroke-width:5,stroke:#66f" d="M 3024.375 1661.71875 L 3080.390625 1517.695312 " transform="matrix(0.1,0,0,-0.1,0,242)"/>
</g>
<g clip-path="url(#clip33)" clip-rule="nonzero">
<path style="stroke-width:5,stroke:#66f" d="M 3024.375 1661.71875 L 3184.375 1403.164062 " transform="matrix(0.1,0,0,-0.1,0,242)"/>
</g>
<g clip-path="url(#clip34)" clip-rule="nonzero">
<path style="stroke-width:5,stroke:#66f" d="M 3024.375 1661.71875 L 3477.03125 1319.804688 " transform="matrix(0.1,0,0,-0.1,0,242)"/>
</g>
<g clip-path="url(#clip35)" clip-rule="nonzero">
<path style="stroke-width:5,stroke:#66f" d="M 3024.375 1661.71875 L 3859.335938 1739.179688 " transform="matrix(0.1,0,0,-0.1,0,242)"/>
</g>
<path style="stroke-width:5,stroke:#66f" d="M 3080.390625 1517.695312 L 3184.375 1403.164062 " transform="matrix(0.1,0,0,-0.1,0,242)"/>
<path style="stroke-width:5,stroke:#66f" d="M 3080.390625 1517.695312 L 3322.890625 1334.101562 " transform="matrix(0.1,0,0,-0.1,0,242)"/>
<path style="stroke-width:5,stroke:#66f" d="M 3080.390625 1517.695312 L 3626.09375 1362.34375 " transform="matrix(0.1,0,0,-0.1,0,242)"/>
<path style="stroke-width:5,stroke:#66f" d="M 3184.375 1403.164062 L 3322.890625 1334.101562 " transform="matrix(0.1,0,0,-0.1,0,242)"/>
<path style="stroke-width:5,stroke:#66f" d="M 3184.375 1403.164062 L 3477.03125 1319.804688 " transform="matrix(0.1,0,0,-0.1,0,242)"/>
<path style="stroke-width:5,stroke:#66f" d="M 3184.375 1403.164062 L 3749.453125 1455.390625 " transform="matrix(0.1,0,0,-0.1,0,242)"/>
<path style="stroke-width:5,stroke:#66f" d="M 3322.890625 1334.101562 L 3477.03125 1319.804688 " transform="matrix(0.1,0,0,-0.1,0,242)"/>
<path style="stroke-width:5,stroke:#66f" d="M 3322.890625 1334.101562 L 3626.09375 1362.34375 " transform="matrix(0.1,0,0,-0.1,0,242)"/>
<path style="stroke-width:5,stroke:#66f" d="M 3322.890625 1334.101562 L 3830.703125 1587.1875 " transform="matrix(0.1,0,0,-0.1,0,242)"/>
<path style="stroke-width:5,stroke:#66f" d="M 3477.03125 1319.804688 L 3626.09375 1362.34375 " transform="matrix(0.1,0,0,-0.1,0,242)"/>
<path style="stroke-width:5,stroke:#66f" d="M 3477.03125 1319.804688 L 3749.453125 1455.390625 " transform="matrix(0.1,0,0,-0.1,0,242)"/>
<path style="stroke-width:5,stroke:#66f" d="M 3477.03125 1319.804688 L 3859.335938 1739.179688 " transform="matrix(0.1,0,0,-0.1,0,242)"/>
<path style="stroke-width:5,stroke:#66f" d="M 3626.09375 1362.34375 L 3749.453125 1455.390625 " transform="matrix(0.1,0,0,-0.1,0,242)"/>
<path style="stroke-width:5,stroke:#66f" d="M 3626.09375 1362.34375 L 3830.703125 1587.1875 " transform="matrix(0.1,0,0,-0.1,0,242)"/>
<path style="stroke-width:5,stroke:#66f" d="M 3749.453125 1455.390625 L 3830.703125 1587.1875 " transform="matrix(0.1,0,0,-0.1,0,242)"/>
<path style="stroke-width:5,stroke:#66f" d="M 3749.453125 1455.390625 L 3859.335938 1739.179688 " transform="matrix(0.1,0,0,-0.1,0,242)"/>
<path style="stroke-width:5,stroke:#66f" d="M 3830.703125 1587.1875 L 3859.335938 1739.179688 " transform="matrix(0.1,0,0,-0.1,0,242)"/>
<path style=" stroke:none;fill-rule:nonzero;fill:rgb(100%,0%,0%);fill-opacity:1;" d="M 385.070312 52.882812 C 385.070312 52.351562 384.859375 51.84375 384.484375 51.46875 C 384.109375 51.09375 383.601562 50.882812 383.070312 50.882812 C 382.539062 50.882812 382.03125 51.09375 381.65625 51.46875 C 381.28125 51.84375 381.070312 52.351562 381.070312 52.882812 C 381.070312 53.410156 381.28125 53.921875 381.65625 54.296875 C 382.03125 54.671875 382.539062 54.882812 383.070312 54.882812 C 383.601562 54.882812 384.109375 54.671875 384.484375 54.296875 C 384.859375 53.921875 385.070312 53.410156 385.070312 52.882812 "/>
<path style=" stroke:none;fill-rule:nonzero;fill:rgb(100%,0%,0%);fill-opacity:1;" d="M 376.945312 39.703125 C 376.945312 39.171875 376.734375 38.664062 376.359375 38.289062 C 375.984375 37.914062 375.476562 37.703125 374.945312 37.703125 C 374.414062 37.703125 373.90625 37.914062 373.53125 38.289062 C 373.15625 38.664062 372.945312 39.171875 372.945312 39.703125 C 372.945312 40.234375 373.15625 40.742188 373.53125 41.117188 C 373.90625 41.492188 374.414062 41.703125 374.945312 41.703125 C 375.476562 41.703125 375.984375 41.492188 376.359375 41.117188 C 376.734375 40.742188 376.945312 40.234375 376.945312 39.703125 "/>
<path style=" stroke:none;fill-rule:nonzero;fill:rgb(100%,0%,0%);fill-opacity:1;" d="M 364.609375 30.398438 C 364.609375 29.867188 364.398438 29.359375 364.023438 28.984375 C 363.648438 28.605469 363.136719 28.398438 362.609375 28.398438 C 362.078125 28.398438 361.566406 28.605469 361.191406 28.984375 C 360.816406 29.359375 360.609375 29.867188 360.609375 30.398438 C 360.609375 30.925781 360.816406 31.4375 361.191406 31.8125 C 361.566406 32.1875 362.078125 32.398438 362.609375 32.398438 C 363.136719 32.398438 363.648438 32.1875 364.023438 31.8125 C 364.398438 31.4375 364.609375 30.925781 364.609375 30.398438 "/>
<path style=" stroke:none;fill-rule:nonzero;fill:rgb(100%,0%,0%);fill-opacity:1;" d="M 349.703125 26.144531 C 349.703125 25.613281 349.492188 25.105469 349.117188 24.730469 C 348.742188 24.355469 348.230469 24.144531 347.703125 24.144531 C 347.171875 24.144531 346.664062 24.355469 346.289062 24.730469 C 345.914062 25.105469 345.703125 25.613281 345.703125 26.144531 C 345.703125 26.675781 345.914062 27.183594 346.289062 27.558594 C 346.664062 27.933594 347.171875 28.144531 347.703125 28.144531 C 348.230469 28.144531 348.742188 27.933594 349.117188 27.558594 C 349.492188 27.183594 349.703125 26.675781 349.703125 26.144531 "/>
<path style=" stroke:none;fill-rule:nonzero;fill:rgb(100%,0%,0%);fill-opacity:1;" d="M 334.289062 27.574219 C 334.289062 27.046875 334.078125 26.535156 333.703125 26.160156 C 333.328125 25.785156 332.820312 25.574219 332.289062 25.574219 C 331.761719 25.574219 331.253906 25.785156 330.878906 26.160156 C 330.503906 26.535156 330.289062 27.046875 330.289062 27.574219 C 330.289062 28.105469 330.503906 28.613281 330.878906 28.988281 C 331.253906 29.363281 331.761719 29.574219 332.289062 29.574219 C 332.820312 29.574219 333.328125 29.363281 333.703125 28.988281 C 334.078125 28.613281 334.289062 28.105469 334.289062 27.574219 "/>
<path style=" stroke:none;fill-rule:nonzero;fill:rgb(100%,0%,0%);fill-opacity:1;" d="M 320.4375 34.480469 C 320.4375 33.949219 320.226562 33.441406 319.851562 33.066406 C 319.476562 32.691406 318.96875 32.480469 318.4375 32.480469 C 317.90625 32.480469 317.398438 32.691406 317.023438 33.066406 C 316.648438 33.441406 316.4375 33.949219 316.4375 34.480469 C 316.4375 35.011719 316.648438 35.519531 317.023438 35.894531 C 317.398438 36.269531 317.90625 36.480469 318.4375 36.480469 C 318.96875 36.480469 319.476562 36.269531 319.851562 35.894531 C 320.226562 35.519531 320.4375 35.011719 320.4375 34.480469 "/>
<path style=" stroke:none;fill-rule:nonzero;fill:rgb(100%,0%,0%);fill-opacity:1;" d="M 310.039062 45.933594 C 310.039062 45.402344 309.828125 44.894531 309.453125 44.519531 C 309.078125 44.144531 308.566406 43.933594 308.039062 43.933594 C 307.507812 43.933594 307 44.144531 306.625 44.519531 C 306.25 44.894531 306.039062 45.402344 306.039062 45.933594 C 306.039062 46.464844 306.25 46.972656 306.625 47.347656 C 307 47.722656 307.507812 47.933594 308.039062 47.933594 C 308.566406 47.933594 309.078125 47.722656 309.453125 47.347656 C 309.828125 46.972656 310.039062 46.464844 310.039062 45.933594 "/>
<g clip-path="url(#clip36)" clip-rule="nonzero">
<path style=" stroke:none;fill-rule:nonzero;fill:rgb(100%,0%,0%);fill-opacity:1;" d="M 304.4375 60.335938 C 304.4375 59.804688 304.226562 59.296875 303.851562 58.921875 C 303.476562 58.546875 302.96875 58.335938 302.4375 58.335938 C 301.90625 58.335938 301.398438 58.546875 301.023438 58.921875 C 300.648438 59.296875 300.4375 59.804688 300.4375 60.335938 C 300.4375 60.863281 300.648438 61.371094 301.023438 61.746094 C 301.398438 62.125 301.90625 62.335938 302.4375 62.335938 C 302.96875 62.335938 303.476562 62.125 303.851562 61.746094 C 304.226562 61.371094 304.4375 60.863281 304.4375 60.335938 "/>
</g>
<g clip-path="url(#clip37)" clip-rule="nonzero">
<path style=" stroke:none;fill-rule:nonzero;fill:rgb(100%,0%,0%);fill-opacity:1;" d="M 304.4375 75.828125 C 304.4375 75.300781 304.226562 74.789062 303.851562 74.414062 C 303.476562 74.039062 302.96875 73.828125 302.4375 73.828125 C 301.90625 73.828125 301.398438 74.039062 301.023438 74.414062 C 300.648438 74.789062 300.4375 75.300781 300.4375 75.828125 C 300.4375 76.359375 300.648438 76.867188 301.023438 77.242188 C 301.398438 77.617188 301.90625 77.828125 302.4375 77.828125 C 302.96875 77.828125 303.476562 77.617188 303.851562 77.242188 C 304.226562 76.867188 304.4375 76.359375 304.4375 75.828125 "/>
</g>
<path style=" stroke:none;fill-rule:nonzero;fill:rgb(100%,0%,0%);fill-opacity:1;" d="M 310.039062 90.230469 C 310.039062 89.699219 309.828125 89.191406 309.453125 88.816406 C 309.078125 88.441406 308.566406 88.230469 308.039062 88.230469 C 307.507812 88.230469 307 88.441406 306.625 88.816406 C 306.25 89.191406 306.039062 89.699219 306.039062 90.230469 C 306.039062 90.761719 306.25 91.269531 306.625 91.644531 C 307 92.019531 307.507812 92.230469 308.039062 92.230469 C 308.566406 92.230469 309.078125 92.019531 309.453125 91.644531 C 309.828125 91.269531 310.039062 90.761719 310.039062 90.230469 "/>
<path style=" stroke:none;fill-rule:nonzero;fill:rgb(100%,0%,0%);fill-opacity:1;" d="M 320.4375 101.683594 C 320.4375 101.152344 320.226562 100.644531 319.851562 100.269531 C 319.476562 99.894531 318.96875 99.683594 318.4375 99.683594 C 317.90625 99.683594 317.398438 99.894531 317.023438 100.269531 C 316.648438 100.644531 316.4375 101.152344 316.4375 101.683594 C 316.4375 102.214844 316.648438 102.722656 317.023438 103.097656 C 317.398438 103.472656 317.90625 103.683594 318.4375 103.683594 C 318.96875 103.683594 319.476562 103.472656 319.851562 103.097656 C 320.226562 102.722656 320.4375 102.214844 320.4375 101.683594 "/>
<path style=" stroke:none;fill-rule:nonzero;fill:rgb(100%,0%,0%);fill-opacity:1;" d="M 334.289062 108.589844 C 334.289062 108.058594 334.078125 107.550781 333.703125 107.175781 C 333.328125 106.800781 332.820312 106.589844 332.289062 106.589844 C 331.761719 106.589844 331.253906 106.800781 330.878906 107.175781 C 330.503906 107.550781 330.289062 108.058594 330.289062 108.589844 C 330.289062 109.117188 330.503906 109.628906 330.878906 110.003906 C 331.253906 110.378906 331.761719 110.589844 332.289062 110.589844 C 332.820312 110.589844 333.328125 110.378906 333.703125 110.003906 C 334.078125 109.628906 334.289062 109.117188 334.289062 108.589844 "/>
<g clip-path="url(#clip38)" clip-rule="nonzero">
<path style=" stroke:none;fill-rule:nonzero;fill:rgb(100%,0%,0%);fill-opacity:1;" d="M 349.703125 110.019531 C 349.703125 109.488281 349.492188 108.980469 349.117188 108.605469 C 348.742188 108.230469 348.230469 108.019531 347.703125 108.019531 C 347.171875 108.019531 346.664062 108.230469 346.289062 108.605469 C 345.914062 108.980469 345.703125 109.488281 345.703125 110.019531 C 345.703125 110.550781 345.914062 111.058594 346.289062 111.433594 C 346.664062 111.808594 347.171875 112.019531 347.703125 112.019531 C 348.230469 112.019531 348.742188 111.808594 349.117188 111.433594 C 349.492188 111.058594 349.703125 110.550781 349.703125 110.019531 "/>
</g>
<path style=" stroke:none;fill-rule:nonzero;fill:rgb(100%,0%,0%);fill-opacity:1;" d="M 364.609375 105.765625 C 364.609375 105.238281 364.398438 104.726562 364.023438 104.351562 C 363.648438 103.976562 363.136719 103.765625 362.609375 103.765625 C 362.078125 103.765625 361.566406 103.976562 361.191406 104.351562 C 360.816406 104.726562 360.609375 105.238281 360.609375 105.765625 C 360.609375 106.296875 360.816406 106.804688 361.191406 107.179688 C 361.566406 107.554688 362.078125 107.765625 362.609375 107.765625 C 363.136719 107.765625 363.648438 107.554688 364.023438 107.179688 C 364.398438 106.804688 364.609375 106.296875 364.609375 105.765625 "/>
<path style=" stroke:none;fill-rule:nonzero;fill:rgb(100%,0%,0%);fill-opacity:1;" d="M 376.945312 96.460938 C 376.945312 95.929688 376.734375 95.421875 376.359375 95.046875 C 375.984375 94.671875 375.476562 94.460938 374.945312 94.460938 C 374.414062 94.460938 373.90625 94.671875 373.53125 95.046875 C 373.15625 95.421875 372.945312 95.929688 372.945312 96.460938 C 372.945312 96.992188 373.15625 97.5 373.53125 97.875 C 373.90625 98.25 374.414062 98.460938 374.945312 98.460938 C 375.476562 98.460938 375.984375 98.25 376.359375 97.875 C 376.734375 97.5 376.945312 96.992188 376.945312 96.460938 "/>
<path style=" stroke:none;fill-rule:nonzero;fill:rgb(100%,0%,0%);fill-opacity:1;" d="M 385.070312 83.28125 C 385.070312 82.753906 384.859375 82.242188 384.484375 81.867188 C 384.109375 81.492188 383.601562 81.28125 383.070312 81.28125 C 382.539062 81.28125 382.03125 81.492188 381.65625 81.867188 C 381.28125 82.242188 381.070312 82.753906 381.070312 83.28125 C 381.070312 83.8125 381.28125 84.320312 381.65625 84.695312 C 382.03125 85.070312 382.539062 85.28125 383.070312 85.28125 C 383.601562 85.28125 384.109375 85.070312 384.484375 84.695312 C 384.859375 84.320312 385.070312 83.8125 385.070312 83.28125 "/>
<path style=" stroke:none;fill-rule:nonzero;fill:rgb(100%,0%,0%);fill-opacity:1;" d="M 387.933594 68.082031 C 387.933594 67.550781 387.722656 67.042969 387.347656 66.667969 C 386.972656 66.292969 386.464844 66.082031 385.933594 66.082031 C 385.402344 66.082031 384.894531 66.292969 384.519531 66.667969 C 384.144531 67.042969 383.933594 67.550781 383.933594 68.082031 C 383.933594 68.613281 384.144531 69.121094 384.519531 69.496094 C 384.894531 69.871094 385.402344 70.082031 385.933594 70.082031 C 386.464844 70.082031 386.972656 69.871094 387.347656 69.496094 C 387.722656 69.121094 387.933594 68.613281 387.933594 68.082031 "/>
<g style="fill:rgb(0%,0%,0%);fill-opacity:1;">
  <use xmlns:xlink="http://www.w3.org/1999/xlink" xlink:href="#glyph0-22" x="312.7" y="8.644"/>
  <use xmlns:xlink="http://www.w3.org/1999/xlink" xlink:href="#glyph0-24" x="317.5" y="8.644"/>
</g>
<g style="fill:rgb(0%,0%,0%);fill-opacity:1;">
  <use xmlns:xlink="http://www.w3.org/1999/xlink" xlink:href="#glyph1-1" x="322.3" y="8.644"/>
</g>
<g style="fill:rgb(0%,0%,0%);fill-opacity:1;">
  <use xmlns:xlink="http://www.w3.org/1999/xlink" xlink:href="#glyph0-2" x="328.4832" y="8.644"/>
  <use xmlns:xlink="http://www.w3.org/1999/xlink" xlink:href="#glyph0-3" x="334.3488" y="8.644"/>
  <use xmlns:xlink="http://www.w3.org/1999/xlink" xlink:href="#glyph0-4" x="339.1488" y="8.644"/>
  <use xmlns:xlink="http://www.w3.org/1999/xlink" xlink:href="#glyph0-5" x="341.8176" y="8.644"/>
  <use xmlns:xlink="http://www.w3.org/1999/xlink" xlink:href="#glyph0-6" x="346.08" y="8.644"/>
</g>
<g style="fill:rgb(0%,0%,0%);fill-opacity:1;">
  <use xmlns:xlink="http: //www.w3.org/1999/xlink" xlink:href="#glyph0-7" x="350.33593" y="8.644"/>
  <use xmlns:xlink="http://www.w3.org/1999/xlink" xlink:href="#glyph0-8" x="352.73593" y="8.644"/>
  <use xmlns:xlink="http://www.w3.org/1999/xlink" xlink:href="#glyph0-9" x="357.53593" y="8.644"/>
  <use xmlns:xlink="http://www.w3.org/1999/xlink" xlink:href="#glyph0-3" x="361.27033" y="8.644"/>
  <use xmlns:xlink="http://www.w3.org/1999/xlink" xlink:href="#glyph0-10" x="366.07033" y="8.644"/>
  <use xmlns:xlink="http://www.w3.org/1999/xlink" xlink:href="#glyph0-11" x="370.87033" y="8.644"/>
</g>
</svg>